<?xml version="1.0" standalone="no"?>
<!DOCTYPE svg PUBLIC "-//W3C//DTD SVG 1.1//EN" "http://www.w3.org/Graphics/SVG/1.1/DTD/svg11.dtd" >
<svg>
<metadata>
Created by FontForge 20110222 at Fri Jun 13 05:56:05 2014
 By deploy user
Copyright (c) Jan Paul, 1978 - 2010. All rights reserved.  [please read the included HTML file for more info]
</metadata>
<defs>
<font id="Aerolite" horiz-adv-x="467" >
  <font-face 
    font-family="Aerolite"
    font-weight="400"
    font-style="italic"
    font-stretch="normal"
    units-per-em="1000"
    panose-1="2 0 0 0 0 0 0 0 0 0"
    ascent="800"
    descent="-200"
    x-height="473"
    cap-height="697"
    bbox="-99 -232 845 939"
    underline-thickness="50"
    underline-position="-50"
    slope="-10"
    unicode-range="U+0020-2122"
  />
<missing-glyph horiz-adv-x="260" 
 />
    <glyph glyph-name=".notdef" horiz-adv-x="260" 
 />
    <glyph glyph-name=".null" horiz-adv-x="0" 
 />
    <glyph glyph-name="nonmarkingreturn" horiz-adv-x="333" 
 />
    <glyph glyph-name="space" unicode=" " horiz-adv-x="260" 
 />
    <glyph glyph-name="exclam" unicode="!" horiz-adv-x="254" 
d="M127 172q16 0 27 11t11 27v374q0 16 -11 27t-27 11t-27 -11t-11 -27v-374q0 -16 11 -27t27 -11zM124 1q20 0 34 13.5t14 32.5q0 18 -12.5 30.5t-32.5 12.5t-33 -12.5t-13 -31.5q0 -18 12.5 -31.5t30.5 -13.5z" />
    <glyph glyph-name="quotedbl" unicode="&#x22;" horiz-adv-x="281" 
d="M73 692q-16 0 -27.5 -11.5t-11.5 -28.5q0 -19 9 -55l30 -135q2 0 9.5 33.5t15.5 68.5l7 36q8 32 8 52q0 16 -11.5 28t-28.5 12zM207 692q-16 0 -27.5 -11.5t-11.5 -28.5q0 -19 9 -55l30 -135q2 0 9.5 33.5t15.5 68.5l7 36q8 32 8 52q0 16 -11.5 28t-28.5 12z" />
    <glyph glyph-name="numbersign" unicode="#" horiz-adv-x="513" 
d="M178 147q14 0 23 9.5t9 22.5v94h93v-94q0 -13 9.5 -22.5t22.5 -9.5t22.5 9.5t9.5 22.5v94h81q13 0 22 9t9 22t-9 22t-22 9h-81v186h81q13 0 22 9t9 22t-9 22t-22 9h-81v73q0 14 -9.5 23t-22.5 9t-22.5 -9t-9.5 -23v-73h-93v73q0 14 -9 23t-23 9t-23 -9t-9 -23v-73h-81
q-13 0 -22 -9t-9 -22t9 -22t22 -9h81v-186h-81q-13 0 -22 -9t-9 -22t9 -22t22 -9h81v-94q0 -13 9 -22.5t23 -9.5zM303 521v-186h-93v186h93z" />
    <glyph glyph-name="dollar" unicode="$" horiz-adv-x="388" 
d="M196 -83q15 0 25.5 10.5t10.5 25.5v16q0 27 8 32q36 20 46 28q30 22 50 54q23 39 23 87q0 88 -70 145q-31 26 -70 39q-84 30 -100 63q-7 14 -7 32q0 30 17 53q26 34 66 34q44 0 68 -37q15 -24 25 -30q6 -3 13 -3q16 0 26 10q12 10 12 25q0 7 -3 18q-14 48 -82 76
q-5 2 -12 4l-6 2q-4 1 -4 32v12q0 15 -10.5 25.5t-25.5 10.5t-25.5 -10.5t-10.5 -25.5v-17q0 -27 -2 -29q-2 -3 -12 -5q-48 -12 -83 -68q-26 -41 -26 -83q0 -100 127 -147q43 -16 70 -32q53 -31 53 -96q0 -26 -12 -50q-27 -51 -84 -51q-48 0 -85 56q-20 31 -38 31
q-15 0 -27 -11t-12 -26q0 -26 30 -60q25 -28 55 -43q18 -9 28.5 -10.5t13.5 -4.5q4 -4 4 -18v-28q0 -15 10.5 -25.5t25.5 -10.5z" />
    <glyph glyph-name="percent" unicode="%" horiz-adv-x="574" 
d="M436 -2q48 0 78.5 31t30.5 78q0 46 -32.5 77.5t-78.5 31.5t-76.5 -32t-30.5 -76q0 -46 31 -78t78 -32zM435 60q-19 0 -31.5 14t-12.5 33t12.5 33t30.5 14q21 0 34 -12.5t13 -33.5t-13 -34.5t-33 -13.5zM143 371q45 0 76 31.5t31 76.5q0 43 -32 76t-77 33q-44 0 -78 -33.5
t-34 -75.5q0 -47 33 -77.5t81 -30.5zM139 434q-18 0 -30.5 12.5t-12.5 33.5q0 18 13 31.5t31 13.5t30.5 -13t12.5 -32q0 -21 -12 -33.5t-32 -12.5zM48 32q0 -34 34 -34q21 0 53 41l324 413q50 63 59.5 77t9.5 25q0 34 -34 34q-14 0 -24.5 -8.5t-37.5 -43.5l-352 -448
q-21 -27 -26.5 -36t-5.5 -20z" />
    <glyph glyph-name="ampersand" unicode="&#x26;" horiz-adv-x="657" 
d="M271 -2q51 0 92 24t62 69q10 22 22 62q1 4 1.5 7t1 4.5t1.5 1.5q1 1 4.5 -3.5t10.5 -14.5t11 -15t82 -107q20 -27 38 -27q14 0 22.5 9.5t8.5 24.5q0 5 -1 9t-4.5 9.5t-5.5 9t-8.5 12.5t-10.5 14q-10 15 -67 91t-68 91q-21 28 -28 35q-8 8 -21 8q-16 0 -28 -10.5
t-12 -25.5q0 -11 4 -20q13 -32 13 -64q0 -49 -34 -87t-83 -38q-53 0 -91 39t-38 93q0 33 9 52.5t40 51.5l6 6t5.5 5t4 4t3.5 5t2 4.5t1.5 4.5t0.5 5q0 9 -9 20q-34 40 -34 72q0 52 30 82t71 30q22 0 50 -16q24 -13 30 -13q12 0 21.5 10t9.5 22q0 24 -33 42q-39 21 -83 21
q-64 0 -108 -39q-62 -56 -62 -137q0 -41 17 -72q8 -14 8 -17l-13 -20q-43 -62 -43 -123q0 -84 59 -142.5t143 -58.5z" />
    <glyph glyph-name="quotesingle" unicode="'" horiz-adv-x="147" 
d="M73 692q-16 0 -27.5 -11.5t-11.5 -28.5q0 -19 9 -55l30 -135q2 0 9.5 33.5t15.5 68.5l7 36q8 32 8 52q0 16 -11.5 28t-28.5 12z" />
    <glyph glyph-name="parenleft" unicode="(" horiz-adv-x="318" 
d="M249 -223q35 0 35 29q0 24 -27 51q-65 64 -108 166q-45 109 -45 212q0 121 61 243q43 87 92 134q25 24 25 42q0 16 -9.5 27.5t-23.5 11.5q-12 0 -20.5 -5.5t-32.5 -30.5q-91 -92 -133 -219q-34 -102 -34 -207q0 -140 64 -279q17 -36 54 -85.5t67 -73.5q21 -16 35 -16z
" />
    <glyph glyph-name="parenright" unicode=")" horiz-adv-x="318" 
d="M69 -223q14 0 35 16q30 24 67 73.5t54 85.5q64 139 64 279q0 105 -34 207q-42 127 -133 219q-24 25 -32.5 30.5t-20.5 5.5q-14 0 -23.5 -11.5t-9.5 -27.5q0 -18 25 -42q49 -47 92 -134q61 -122 61 -243q0 -103 -45 -212q-43 -102 -108 -166q-27 -27 -27 -51q0 -29 35 -29
z" />
    <glyph glyph-name="asterisk" unicode="*" horiz-adv-x="283" 
d="M142 445q8 0 13 5.5t5 12.5v72l61 -44q5 -3 10 -3q18 0 18 17q0 9 -7 15l-70 50l70 51q7 6 7 15q0 7 -5.5 12.5t-11.5 5.5q-5 0 -11 -4l-61 -45v69q0 8 -5 13t-13 5t-13 -5t-5 -13v-69l-62 46q-6 4 -11 4q-6 0 -11.5 -5.5t-5.5 -12.5q0 -9 7 -15l71 -52l-71 -51
q-7 -6 -7 -15q0 -17 18 -17q6 0 10 3l62 45v-72q0 -7 5 -12.5t13 -5.5z" />
    <glyph glyph-name="plus" unicode="+" horiz-adv-x="537" 
d="M268 -3q15 0 25.5 10t10.5 25v166h165q14 0 24 10t10 24t-10 24t-24 10h-165v165q0 15 -10.5 25.5t-25.5 10.5t-25 -10.5t-10 -25.5v-165h-165q-14 0 -24 -10t-10 -24t10 -24t24 -10h165v-166q0 -15 10 -25t25 -10z" />
    <glyph glyph-name="comma" unicode="," horiz-adv-x="223" 
d="M148 90q-24 0 -37 -18t-31 -65q-3 -9 -18.5 -46.5t-27 -66t-10.5 -28.5q3 0 125 120q40 40 40 61q0 17 -12.5 30t-28.5 13z" />
    <glyph glyph-name="hyphen" unicode="-" horiz-adv-x="370" 
d="M306 233q0 13 -10 23t-23 10h-176q-13 0 -23 -10t-10 -23t10 -23t23 -10h176q13 0 23 10t10 23z" />
    <glyph glyph-name="period" unicode="." horiz-adv-x="219" 
d="M109 3q20 0 33 13.5t13 32.5q0 18 -12.5 30t-32.5 12q-19 0 -32.5 -12.5t-13.5 -30.5q0 -19 13 -32t32 -13z" />
    <glyph glyph-name="slash" unicode="/" horiz-adv-x="361" 
d="M56 -4q26 0 33 18l215 546q33 84 33 91q0 15 -10.5 25.5t-24.5 10.5q-25 0 -34 -23l-234 -598q-10 -28 -10 -36q0 -14 9 -24t23 -10z" />
    <glyph glyph-name="zero" unicode="0" horiz-adv-x="462" 
d="M211 31q0 11 -4 16t-23 19q-62 46 -71 105q-3 21 -3 53v140q0 54 6 78q12 47 42 77t74 30q38 0 71 -27.5t43 -66.5q6 -24 6 -84v-143q0 -61 -5 -79q-7 -23 -25 -47t-38 -37q-19 -12 -23.5 -20t-4.5 -24q0 -11 9 -17t22 -6q25 0 77 46q33 28 53 79q8 21 9.5 44.5
t1.5 128.5q0 114 -2 139t-14 54q-15 35 -43 63q-59 61 -140 61q-65 0 -117 -44q-49 -39 -67 -95q-8 -23 -9.5 -50t-1.5 -123q0 -102 1 -127t8 -45q21 -61 74 -101q39 -29 66 -29q28 0 28 32z" />
    <glyph glyph-name="one" unicode="1" horiz-adv-x="293" 
d="M193 -3q15 0 25.5 10.5t10.5 25.5v470q0 21 -0.5 41t-0.5 31.5v12.5q0 10 -6.5 17.5t-14.5 7.5q-5 0 -9 -2.5t-10 -8.5t-10.5 -11.5t-14 -18t-15.5 -20.5l-47 -58q-3 -4 -10 -12.5t-9.5 -11.5t-7.5 -9.5t-6.5 -10t-4 -8t-3.5 -8.5t-1 -8q0 -10 7 -17.5t17 -7.5
q12 0 47 19q21 12 23 12q4 0 4 -21v-378q0 -15 10.5 -25.5t25.5 -10.5z" />
    <glyph glyph-name="two" unicode="2" horiz-adv-x="404" 
d="M373 34q0 14 -10.5 24.5t-24.5 10.5h-185q-17 0 -17 2t1.5 4t9.5 11.5t18 22.5q46 60 152 204q30 41 44 71.5t14 70.5q0 58 -44 108q-47 53 -120 53q-61 0 -100 -27q-56 -40 -56 -79q0 -14 10.5 -23.5t25.5 -9.5q13 0 19 4.5t26 26.5q31 34 75 34q26 0 46 -12
q46 -27 46 -76q0 -33 -33 -78q-96 -132 -209 -275q-21 -27 -26.5 -38.5t-5.5 -26.5q0 -29 28 -35q3 -1 36 -1h245q14 0 24.5 10t10.5 24z" />
    <glyph glyph-name="three" unicode="3" horiz-adv-x="415" 
d="M50 58q60 -59 141 -59q82 0 138.5 56.5t56.5 140.5q0 140 -134 186q-17 6 -17 7q-1 1 42 53q52 62 72 95q6 11 6 28q0 22 -10 33q-8 9 -17.5 11t-45.5 2h-184q-14 0 -24 -10.5t-10 -24.5t10 -24t24 -10h139q21 0 21 -6q0 -4 -9.5 -17t-29.5 -38t-33 -43q-26 -35 -33 -47
t-7 -23q0 -17 10.5 -24t38.5 -13q119 -25 119 -129q0 -58 -33.5 -94t-88.5 -36q-46 0 -92 38q-26 22 -39 22t-22.5 -10.5t-9.5 -25.5q0 -17 21 -38z" />
    <glyph glyph-name="four" unicode="4" horiz-adv-x="486" 
d="M314 -1q16 0 27 11t11 27v95q0 32 4 37q4 4 40 4h26q14 0 24.5 10t10.5 24t-10.5 24.5t-24.5 10.5h-26q-35 0 -40 4q-4 4 -4 43v20q0 16 -11 27t-27 11t-27 -11t-11 -27v-44q0 -15 -4 -19q-5 -4 -43 -4h-85q-24 0 -24 4q0 11 22 39l146 183q65 83 73 97q4 8 4 17
q0 14 -9.5 24t-22.5 10q-11 0 -24 -10q-5 -5 -37 -43l-170 -215q-2 -2 -12.5 -15t-14.5 -18.5t-13 -17.5t-13 -19.5t-9.5 -17.5t-8 -18.5t-2.5 -15.5q0 -37 30 -48q15 -5 112 -5q99 0 103 -3q2 -2 2 -14v-119q0 -16 11 -27t27 -11z" />
    <glyph glyph-name="five" unicode="5" horiz-adv-x="415" 
d="M105 18q37 -19 83 -19q75 0 136.5 57t61.5 134q0 93 -51.5 147t-143.5 66q-22 2 -26 5q-5 3 -5 65v46q0 18 4 21q1 2 19 2h116q14 0 24.5 10t10.5 24t-10.5 24.5t-24.5 10.5h-106q-80 0 -85 -3q-16 -9 -20 -22q-2 -8 -2 -115q0 -106 4 -114q7 -14 22 -19q6 -3 36 -3
q44 0 74 -10q42 -15 64.5 -49t22.5 -79q0 -52 -33.5 -90.5t-85.5 -38.5q-42 0 -88 39q-33 27 -44 27q-13 0 -21 -11t-8 -25q0 -8 3 -16q14 -33 73 -64z" />
    <glyph glyph-name="six" unicode="6" horiz-adv-x="469" 
d="M233 -3q82 0 144.5 58t62.5 139q0 87 -57 142t-143 55q-5 0 -12 -0.5t-10 -0.5q-10 0 -10 3q0 6 34 57q24 34 47 69q30 46 30 58q0 15 -10.5 25t-24.5 10q-9 0 -17 -4q-12 -6 -74 -100q-22 -33 -35 -53q-56 -84 -82 -125q-47 -75 -47 -133q0 -81 61 -140.5t143 -59.5z
M233 63q-54 0 -91 37.5t-37 90.5q0 59 36 97t96 38q54 0 90.5 -35.5t36.5 -91.5q0 -61 -38 -98.5t-93 -37.5z" />
    <glyph glyph-name="seven" unicode="7" horiz-adv-x="417" 
d="M177 -1q15 0 25.5 10.5t10.5 25.5v53q0 144 36 236q22 55 62 117q14 22 51 72q18 24 22 33t4 22q0 29 -21 37q-13 5 -66 5h-238q-14 0 -24 -10.5t-10 -24.5t10 -24t24 -10h211q15 0 15 -2q0 -1 -9 -15q-68 -106 -73 -116q-47 -88 -62 -230q-4 -42 -4 -143
q0 -15 10.5 -25.5t25.5 -10.5z" />
    <glyph glyph-name="eight" unicode="8" horiz-adv-x="492" 
d="M246 -2q86 0 151.5 60t65.5 144q0 85 -76 152q-12 11 -12 14t12 20q24 35 24 83q0 70 -54 109q-45 33 -111 33t-111 -33q-54 -39 -54 -109q0 -48 24 -83q12 -17 12 -20t-12 -14q-76 -67 -76 -152q0 -84 65.5 -144t151.5 -60zM246 558q41 0 69 -25.5t28 -67.5
q0 -46 -54 -90q-18 -14 -18 -20q0 -8 13 -14q101 -46 101 -142q0 -58 -41 -95t-98 -37t-98 37t-41 95q0 96 101 142q13 6 13 14q0 6 -18 20q-54 44 -54 90q0 42 28 67.5t69 25.5z" />
    <glyph glyph-name="nine" unicode="9" 
d="M196 -2q16 0 24 7t22 30q63 98 150 243q35 59 42 94q4 22 4 42q0 84 -59.5 143t-145.5 59q-83 0 -143.5 -59.5t-60.5 -141.5q0 -71 39.5 -121.5t111.5 -67.5q22 -5 52 -5q11 0 21 1h10q6 0 6 -1q0 -3 -7 -14q-63 -96 -94 -150q-7 -12 -7 -23q0 -15 10 -25.5t25 -10.5z
M242 286q-60 0 -98.5 35.5t-38.5 95.5q0 58 38 95.5t96 37.5q52 0 87.5 -40t35.5 -93q0 -54 -32.5 -92t-87.5 -39z" />
    <glyph glyph-name="colon" unicode=":" horiz-adv-x="220" 
d="M109 3q20 0 33.5 13.5t13.5 32.5q0 17 -12.5 29.5t-32.5 12.5t-33.5 -12t-13.5 -29q0 -20 13 -33.5t32 -13.5zM110 263q19 0 32.5 14t13.5 32t-12.5 30t-32.5 12t-33.5 -11.5t-13.5 -29.5q0 -20 13 -33.5t33 -13.5z" />
    <glyph glyph-name="semicolon" unicode=";" horiz-adv-x="225" 
d="M148 90q-24 0 -37 -18t-31 -65q-3 -9 -18.5 -46.5t-27 -66t-10.5 -28.5q3 0 125 120q40 40 40 61q0 17 -12.5 30t-28.5 13zM143 264q20 0 34 13.5t14 33.5q0 19 -13 31t-32 12t-33 -12t-14 -30t12.5 -33t31.5 -15z" />
    <glyph glyph-name="less" unicode="&#x3c;" horiz-adv-x="327" 
d="M268 1q11 0 17.5 9t6.5 21q0 14 -30 54q-28 37 -94 108q-28 30 -28 44q0 4 1 7.5t2.5 6t5 6.5t5.5 6l7.5 7.5l8.5 8.5q43 45 92 107q31 40 31 55q0 31 -26 31q-10 0 -20 -8t-38 -39q-51 -55 -116 -114q-25 -23 -36 -33.5t-19.5 -22t-8.5 -20.5q0 -5 2.5 -10t7.5 -10.5
t9 -10t12 -12t12 -11.5q91 -88 153 -153q17 -18 24 -22.5t19 -4.5z" />
    <glyph glyph-name="equal" unicode="=" horiz-adv-x="401" 
d="M367 309q0 13 -9.5 23t-23.5 10h-267q-13 0 -23 -10t-10 -23t10 -23t23 -10h267q14 0 23.5 10t9.5 23zM367 157q0 13 -9.5 23t-23.5 10h-267q-13 0 -23 -10t-10 -23t10 -23t23 -10h267q14 0 23.5 10t9.5 23z" />
    <glyph glyph-name="greater" unicode="&#x3e;" horiz-adv-x="327" 
d="M59 1q12 0 19 4.5t24 22.5q62 65 153 153q4 4 12 11.5t12 12t9 10t7.5 10.5t2.5 10q0 12 -14 27.5t-50 48.5q-65 59 -116 114q-28 31 -38 39t-20 8q-26 0 -26 -31q0 -15 31 -55q49 -62 92 -107l6.5 -6.5l5.5 -5.5l5 -5t4.5 -5t3.5 -4.5t3 -5t1.5 -5t0.5 -5.5
q0 -14 -28 -44q-66 -71 -94 -108q-30 -40 -30 -54q0 -12 6.5 -21t17.5 -9z" />
    <glyph glyph-name="question" unicode="?" horiz-adv-x="378" 
d="M145 173q15 0 26 11t11 26v9q0 39 3 48q7 17 41 23q35 5 72 42q51 51 51 130q0 48 -30 91q-23 32 -57 52t-71 20q-82 0 -137 -55q-25 -26 -25 -46q0 -10 6 -18q11 -14 32 -14q16 0 32 17q25 26 41.5 36t41.5 10q42 0 67.5 -29t25.5 -71q0 -48 -26.5 -75.5t-80.5 -41.5
q-35 -9 -48 -26q-8 -11 -10 -24t-2 -58v-20q0 -15 11 -26t26 -11zM144 1q21 0 34 13.5t13 34.5q0 19 -13.5 30.5t-31.5 11.5q-20 0 -33.5 -13.5t-13.5 -31.5t13.5 -31.5t31.5 -13.5z" />
    <glyph glyph-name="at" unicode="@" horiz-adv-x="542" 
d="M29 224q0 -71 44 -134q34 -50 85 -76q34 -17 50 -17q25 0 25 18q0 15 -5.5 22t-26.5 18q-32 16 -49 30.5t-34 39.5q-32 48 -32 100q0 83 59 139q52 49 130 49q75 0 124 -46q57 -54 57 -140q0 -60 -26 -102q-32 -50 -88 -73q-35 -13 -35 -36q0 -9 7.5 -14t17.5 -5
q32 0 73 28q57 37 85 97q23 46 23 102q0 86 -48 149q-70 94 -194 94q-105 0 -174 -73q-68 -70 -68 -170zM379 148q0 8 -6 14t-14 6h-2q-8 0 -10 2q-2 3 -2 38q0 46 -12 71q-28 60 -97 76q-4 1 -11 1q-18 0 -18 -17q0 -16 30 -24q16 -4 16 -8q0 -2 -12 -17q-4 -5 -14.5 -17.5
t-14.5 -17.5q-44 -54 -44 -82q0 -30 29 -41q10 -4 75 -4h87q8 0 14 6t6 14zM247 168q-30 0 -33 2q-4 3 -4 9q0 7 6 16q10 15 38.5 48t30.5 33q7 0 14 -28q3 -9 3 -45v-25q0 -7 -1 -8q-2 -2 -6 -2h-48z" />
    <glyph glyph-name="A" unicode="A" horiz-adv-x="511" 
d="M71 -3q15 0 26 11t11 26v164q0 14 13 14h197q15 0 17.5 -3.5t2.5 -19.5v-152q0 -15 11 -26t26 -11t26 11t11 26v152q0 16 4 20q6 3 22 3h12q14 0 23 9t9 23t-9 23t-23 9h-12q-22 0 -23 2q-3 3 -3 31v28q0 75 -7 126q-9 73 -56 130q-42 54 -121 86q-41 17 -66 17
q-18 0 -29.5 -8.5t-11.5 -23.5q0 -14 8.5 -22t33.5 -18q57 -22 57 -34q0 -6 -44 -57q-61 -72 -101.5 -156.5t-40.5 -165.5v-177q0 -15 11 -26t26 -11zM335 279q-3 -3 -25 -3h-186q-6 0 -6 7q0 10 11 43q22 66 103 164q49 58 52 59q6 0 17 -14t18 -30q10 -23 13 -45.5
t5 -87.5q1 -26 1 -61q0 -27 -3 -32z" />
    <glyph glyph-name="B" unicode="B" horiz-adv-x="567" 
d="M193 -1h52q34 0 66 4q56 8 92.5 24.5t70.5 52.5q64 67 64 155q0 94 -60 160q-36 41 -91 60q-15 5 -15 8t12 18q49 63 55 71q26 36 26 65q0 27 -23 52q-21 23 -97 23h-283q-14 0 -23.5 -10t-9.5 -24t9.5 -23.5t23.5 -9.5h13q24 0 29.5 -1.5t5.5 -8.5v-438q0 -138 3 -146
q8 -21 27 -26.5t53 -5.5zM242 66q-47 0 -52 3q-6 4 -6 10v534q0 8 8 10q5 2 40 2h90q57 0 64 -5q5 -3 5 -11q0 -6 -30 -45q-4 -5 -24 -31.5t-35.5 -47.5t-18.5 -25q-5 -8 -5 -17q0 -17 12 -27q6 -5 53 -17q52 -13 83 -44q44 -42 44 -110q0 -49 -31 -97q-41 -63 -135 -78
q-24 -4 -62 -4z" />
    <glyph glyph-name="C" unicode="C" horiz-adv-x="511" 
d="M476 33q0 13 -10 23t-23 10h-45q-141 0 -217 82q-77 81 -77 201q0 94 48 166q48 75 121 99q48 15 83 15q23 0 34 -4t11 -18q0 -9 -17 -31q-24 -27 -24 -43q0 -12 7.5 -20.5t18.5 -8.5q16 0 28 11.5t37 46.5q26 35 26 55q0 35 -41 55.5t-83 20.5q-71 0 -134 -31t-109 -85
q-81 -95 -81 -221q0 -91 34 -163q37 -81 120 -138q78 -55 188 -55h72q13 0 23 10t10 23z" />
    <glyph glyph-name="D" unicode="D" horiz-adv-x="573" 
d="M73 0h92q183 0 287 108q92 97 92 235q-2 134 -81 225q-46 54 -113 88.5t-148 34.5h-143q-13 0 -22.5 -9.5t-9.5 -22.5t9.5 -22.5t22.5 -9.5h24q26 0 33.5 -2t7.5 -11l2 -316q0 -46 -2 -71.5t-4 -33.5t-8 -24q-11 -27 -53 -85q-23 -31 -23 -46q0 -16 10 -27t27 -11z
M200 299l-2 310q0 12 4.5 14.5t17.5 2.5q61 0 123 -41q79 -52 112 -143q14 -42 16 -99q0 -113 -77 -195q-69 -70 -182 -80q-13 -1 -48 -1h-18q-14 0 -14 2q0 5 12 22q45 64 53 130q3 24 3 78z" />
    <glyph glyph-name="E" unicode="E" horiz-adv-x="396" 
d="M88 0h248q13 0 22 9t9 22t-9 22t-22 9h-162q-42 0 -42 6q0 5 12 22q22 30 40 74q10 28 9 84v52q-1 92 4 97q4 4 19 5h73q13 0 22.5 9t9.5 23t-9.5 23t-22.5 9h-77q-14 0 -18 4q-2 2 -3 6.5t-1.5 10t-1.5 8.5q-18 79 -54 120q-6 7 -6 12q0 2 30 2h172q14 0 23 9.5t9 22.5
t-9 22.5t-23 9.5h-219q-50 0 -62 -7q-21 -12 -21 -32q0 -3 0.5 -5.5t0.5 -4.5t1 -4.5t2 -4.5t3 -5.5t3.5 -5.5t5 -6.5t5.5 -7.5t7 -9.5t8 -10.5q35 -45 45 -83q8 -28 10 -174l1 -106q0 -32 -10 -60q-8 -23 -46 -71l-10 -12.5t-9 -10.5t-6.5 -8.5t-5.5 -9t-3 -8.5t-1 -10
q0 -22 21 -31q15 -6 38 -6z" />
    <glyph glyph-name="F" unicode="F" horiz-adv-x="408" 
d="M154 -1q15 0 26.5 11t11.5 26l1 297q1 63 5 67q5 4 49 4h44q13 0 22.5 9t9.5 23t-9.5 23t-22.5 9h-68q-21 0 -26 3q-3 2 -7 19q-18 80 -54 122q-8 10 -8 13q0 4 29 4h190q13 0 22.5 9.5t9.5 22.5t-9.5 22.5t-22.5 9.5h-229q-46 0 -60 -4q-11 -3 -20 -13.5t-9 -21.5
q0 -18 33 -60q39 -54 49 -91q9 -31 8 -170l-1 -297q0 -15 10.5 -26t25.5 -11z" />
    <glyph glyph-name="G" unicode="G" horiz-adv-x="491" 
d="M390 -3q26 0 39 6q14 5 19.5 12.5t6.5 22.5q2 8 2 93v295q0 25 -15 33.5t-56 8.5h-48q-14 0 -23 -9t-9 -23t9 -23t23 -9h8q26 0 31 -5q4 -4 4 -66v-228q0 -29 -5 -34q-6 -6 -18 -6q-3 0 -31 4q-37 6 -77 26t-69 47q-38 35 -59 88q-19 48 -19 106q0 73 31 136q29 57 83 99
q77 59 192 59h16q13 0 22.5 9t9.5 23t-9.5 23t-22.5 9h-39q-86 0 -161.5 -38t-126.5 -109q-69 -94 -69 -209q0 -102 61 -194q57 -87 178 -130q48 -17 122 -17z" />
    <glyph glyph-name="H" unicode="H" horiz-adv-x="454" 
d="M71 -4q15 0 26 11t11 26v329q0 30 6 36q4 4 22 4h181q17 0 21 -4q8 -7 8 -52v-313q0 -15 11 -26t26 -11t26 11t11 26v622q0 15 -11 26t-26 11t-26 -11t-11 -26v-137q0 -40 -5 -45q-7 -5 -21 -5h-186q-16 0 -20 4q-6 6 -6 44v139q0 15 -11 26t-26 11t-26 -11t-11 -26v-622
q0 -15 11 -26t26 -11z" />
    <glyph glyph-name="I" unicode="I" horiz-adv-x="146" 
d="M73 -5q17 0 28 11.5t11 27.5v624q0 16 -11 27.5t-28 11.5t-28 -11.5t-11 -27.5v-624q0 -16 11 -27.5t28 -11.5z" />
    <glyph glyph-name="J" unicode="J" horiz-adv-x="311" 
d="M59 -139q11 0 18 6q14 9 75 84q74 92 94 133q31 64 31 158v410q0 38 -44 38h-151q-14 0 -23.5 -10t-9.5 -24t9.5 -23.5t23.5 -9.5h83q26 0 30 -4t4 -26v-321q0 -95 -9 -126q-13 -45 -85 -136q-23 -29 -63 -88q-13 -20 -13 -35q0 -12 8.5 -19t21.5 -7z" />
    <glyph glyph-name="K" unicode="K" horiz-adv-x="431" 
d="M71 -1q15 0 26 11t11 26v617q0 15 -11 26t-26 11t-26 -11t-11 -26v-617q0 -15 11 -26t26 -11zM360 1q15 0 26 11t11 26v125q0 68 -2 110q-6 130 -120 164q-14 4 -14 6q0 5 6 12l122 164q18 25 18 42q0 14 -8.5 22.5t-20.5 8.5q-20 0 -43 -31l-146 -192q-28 -37 -28 -57
q0 -33 46 -36q51 -4 78 -27.5t33 -72.5q5 -38 5 -123v-115q0 -15 11 -26t26 -11z" />
    <glyph glyph-name="L" unicode="L" horiz-adv-x="432" 
d="M89 0h200q23 0 32 3q13 4 24.5 15t35.5 42q22 28 22 41q0 16 -8.5 25t-19.5 9q-19 0 -50 -39q-24 -29 -36 -34q-4 -2 -15 -2h-120q-23 0 -23 4q0 1 9 14q25 34 36.5 52.5t20.5 49.5t9 70v395q0 27 -9 36q-10 10 -45 10h-66q-14 0 -24.5 -10.5t-10.5 -24.5t10.5 -24.5
t24.5 -10.5h11q24 0 27 -2q4 -4 4 -31v-348q0 -45 -11 -68.5t-53 -74.5q-35 -43 -35 -58q0 -39 60 -39z" />
    <glyph glyph-name="M" unicode="M" horiz-adv-x="594" 
d="M72 -3q16 0 27 11t11 27v473q0 24 3 24h2t1.5 -1t1 -1.5t1.5 -2t2 -3.5t3 -5l4 -6q3 -4 34.5 -53t62 -96t43.5 -66t18.5 -24.5t10.5 -5.5t10.5 5.5t18.5 24.5t43.5 66t62 96t34.5 53l4 6t3 5t2 3.5t1.5 2t1 1.5t1.5 1h2q3 0 3 -24v-473q0 -16 11 -27t27 -11t27 11t11 27
v565q0 49 -3 67q-5 27 -28 27q-17 0 -26 -10q-4 -4 -38 -55t-81 -122t-57 -87q-4 -6 -8 -12.5t-6.5 -10t-4.5 -7t-3 -5t-2.5 -3t-2.5 -2t-3 -0.5q-1 0 -2.5 0.5t-2.5 1t-2 2.5t-2.5 4t-3.5 5t-4 6.5t-5.5 9t-7.5 11.5q-165 252 -176 264q-9 10 -26 10q-23 0 -28 -27
q-3 -18 -3 -67v-565q0 -16 11 -27t27 -11z" />
    <glyph glyph-name="N" unicode="N" horiz-adv-x="448" 
d="M71 -3q15 0 26 11t11 26v493q0 27 4 27q1 0 22 -24l156 -186q25 -30 32 -40t11 -26q7 -26 7 -76v-168q0 -15 11 -26t26 -11t26 11t11 26v624q0 15 -11 26t-26 11t-26 -11t-11 -26v-236q0 -25 -4 -25q-5 0 -23 22l-197 235q-3 3 -8.5 10t-7.5 9.5t-6 7t-6.5 6t-6 3.5
t-6.5 2.5t-7 0.5q-17 0 -27 -15q-7 -12 -7 -32v-612q0 -15 11 -26t26 -11z" />
    <glyph glyph-name="O" unicode="O" horiz-adv-x="754" 
d="M357 27q0 14 -11 25q-7 7 -24 12q-112 35 -165 113q-52 74 -52 166q0 91 51 168q37 57 96 86.5t129 29.5q56 0 112 -29t94 -76q62 -76 62 -182q0 -90 -60 -176q-53 -77 -144 -98q-15 -4 -24 -14q-8 -9 -8 -24q0 -30 33 -30q43 0 106 36q70 41 114 107q59 87 59 205
q0 153 -113 258q-98 93 -225 93q-83 0 -156 -31t-122 -91q-80 -98 -80 -229q0 -115 63 -204q51 -73 128 -112q64 -33 106 -33q13 0 22 9t9 21z" />
    <glyph glyph-name="P" unicode="P" horiz-adv-x="497" 
d="M142 -4q15 0 26 11t11 26v167q0 22 6 27q4 2 19 4q113 11 188 86q35 35 55.5 84t20.5 91q0 70 -36 120q-48 68 -136 80q-24 3 -50 3h-184q-14 0 -23.5 -9.5t-9.5 -23.5t9.5 -23.5t23.5 -9.5h24q14 0 17 -3q2 -2 2 -32v-561q0 -15 11 -26t26 -11zM193 297q-5 0 -10 3
q-4 2 -4 22v284q0 12 6 18q5 5 48 5q72 0 104 -19q60 -37 60 -113q0 -65 -41 -115q-40 -51 -112 -75q-21 -8 -51 -10z" />
    <glyph glyph-name="Q" unicode="Q" horiz-adv-x="742" 
d="M295 -1q14 0 26 9.5t12 21.5q0 32 -27 39q-57 14 -122 70q-39 34 -59 89t-20 113q0 115 71 192q37 40 91 63t108 23q51 0 100 -22t85 -60q77 -83 77 -195q0 -62 -23 -111q-31 -65 -120 -139l-192 -157q-23 -18 -23 -37q0 -15 9.5 -25.5t24.5 -10.5h278q14 0 24 10t10 24
t-10 24t-24 10h-159q-24 0 -24 2q0 1 24 22l131 112q60 53 85 87q65 86 65 190q0 77 -32 148t-92 123q-91 79 -211 79q-86 0 -162.5 -39.5t-121.5 -107.5q-65 -98 -65 -209q0 -129 84 -229q28 -33 50 -51t57 -35q48 -23 75 -23z" />
    <glyph glyph-name="R" unicode="R" horiz-adv-x="542" 
d="M149 0q15 0 26 11t11 26v564q0 23 5 28q4 4 21 4h146q35 0 35 -14q0 -5 -12 -22l-76 -96q-31 -39 -31 -61q0 -17 17 -26q7 -4 31 -7q35 -5 52 -12t31 -22q20 -22 24.5 -40t4.5 -66v-230q0 -15 11 -26t26 -11t26 11t11 26v244q0 58 -12.5 92.5t-49.5 62.5q-27 20 -59 30
q-3 1 -7 2l-6 1.5t-3.5 1.5t-2 2t-0.5 3q0 3 9 15l45 57q22 28 30.5 44t8.5 39q0 32 -16 47q-14 13 -27.5 16t-48.5 3h-308q-13 0 -22.5 -9.5t-9.5 -22.5t9.5 -22.5t22.5 -9.5h22q21 0 26 -5q3 -4 3 -27v-564q0 -15 11 -26t26 -11z" />
    <glyph glyph-name="S" unicode="S" horiz-adv-x="358" 
d="M64 -4q60 0 120 26t100 85q45 65 45 137q0 38 -13 76q-16 45 -87 121q-55 57 -67.5 76t-12.5 45q0 44 44 57q15 4 58 4h33q15 0 26 10.5t11 25.5t-11 26t-26 11h-54q-42 0 -70 -8t-53 -33q-40 -40 -40 -97q0 -37 17.5 -64.5t62.5 -76.5q42 -45 58 -64.5t29 -49t13 -64.5
q0 -47 -28 -88q-50 -71 -147 -82q-43 -5 -43 -38q0 -16 10.5 -25.5t24.5 -9.5z" />
    <glyph glyph-name="T" unicode="T" horiz-adv-x="446" 
d="M240 -1q16 0 27 11t11 27v408q0 91 -40 149q-2 3 -7.5 9.5t-9.5 11.5t-4 8t29 3h137q14 0 24 10t10 24t-10 24t-24 10h-320q-14 0 -24 -10t-10 -24t10 -24t24 -10h24q26 0 35.5 -4.5t24.5 -22.5q55 -68 55 -156v-406q0 -16 11 -27t27 -11z" />
    <glyph glyph-name="U" unicode="U" 
d="M236 0q55 0 102.5 29.5t72.5 78.5q13 27 17.5 56.5t4.5 123.5v368q0 16 -11 27t-27 11t-27 -11t-11 -27v-423q0 -49 -5 -69q-10 -41 -42 -68.5t-74 -27.5q-40 0 -74 27.5t-46 66.5q-6 18 -6 67v427q0 16 -11 27t-27 11t-27 -11t-11 -27v-363q0 -86 4 -121.5t18 -61.5
q27 -50 76 -80t104 -30z" />
    <glyph glyph-name="V" unicode="V" horiz-adv-x="471" 
d="M142 -2q5 0 10 1t10.5 5t9 6.5t10.5 10t11 11.5t13 14t14 15q17 18 106 134q36 46 63 101t36 97q12 58 12 122v139q0 16 -11 27t-27 11t-27 -11t-11 -27v-120q0 -73 -8 -114.5t-26 -80.5q-22 -47 -42.5 -77t-66.5 -88q-61 -77 -67 -77t-15 16.5t-15 35.5q-11 39 -11 128
v378q0 16 -11 27t-27 11t-27 -11t-11 -27v-407q0 -67 10 -110.5t46 -97.5q28 -42 52 -42z" />
    <glyph glyph-name="W" unicode="W" horiz-adv-x="600" 
d="M66 1q9 0 18 5q5 3 16 15t36 41.5t36 41.5q13 15 48 57q32 39 35 39q1 0 1 -18v-133q0 -50 29 -50q13 0 20 4q12 7 49 52q111 134 159 217q32 55 42.5 107t10.5 124v152q0 16 -11 27t-27 11t-27 -11t-11 -27v-188q0 -54 -6.5 -81.5t-26.5 -67.5q-39 -75 -100 -154
q-26 -34 -27 -34q-2 0 -2 13v297q0 15 -10.5 25.5t-25.5 10.5t-25.5 -10.5t-10.5 -25.5v-73q0 -41 -12 -72q-6 -15 -28 -40q-37 -41 -83 -99q-18 -23 -21 -23q-2 0 -2 35v487q0 16 -11 27t-27 11t-27 -11t-11 -27v-606q0 -48 32 -48z" />
    <glyph glyph-name="X" unicode="X" 
d="M60 -1q19 0 28 14t13 44q15 111 86 207q44 59 49 59q7 0 42 -52q42 -62 58 -100.5t30 -114.5q6 -33 12 -45t23 -12q19 0 28 10t9 36q0 50 -26 123q-26 75 -79 148q-40 56 -40 68q0 15 36 67q54 79 69 146q6 29 6 56q0 16 -9 28t-26 12t-23.5 -10.5t-12.5 -41.5
q-18 -97 -73 -177q-2 -2 -5.5 -7.5t-6.5 -10t-6 -8t-5 -3.5q-4 0 -21 24q-37 51 -53.5 86t-32.5 98q-1 3 -3.5 14.5t-4 15t-5 9.5t-9.5 8t-15 2q-34 0 -34 -43q0 -44 21 -94q21 -52 70 -120q25 -36 25 -48q0 -14 -21 -43q-62 -84 -86 -137q-39 -81 -39 -162q0 -46 31 -46z
" />
    <glyph glyph-name="Y" unicode="Y" 
d="M232 -4q16 0 27 11t11 27v135q0 69 12 103q11 28 40 79q3 5 30 49.5t39 69.5q17 33 32 85t15 85q0 50 -34 50q-22 0 -30.5 -14t-15.5 -55q-19 -109 -73 -193q-1 -2 -7 -12t-12.5 -20.5t-13.5 -21t-12.5 -17.5t-8.5 -7q-4 0 -11 10t-35 60q-39 69 -54.5 109.5t-27.5 106.5
q-6 33 -13.5 43t-25.5 10q-35 0 -35 -41q0 -34 15 -90t37 -97q4 -8 15.5 -29.5t24 -44.5t23.5 -43q25 -43 35 -72q15 -47 15 -105v-133q0 -16 11 -27t27 -11z" />
    <glyph glyph-name="Z" unicode="Z" horiz-adv-x="420" 
d="M100 -2h251q13 0 23 10t10 23t-10 23t-23 10h-197q-32 0 -39 6q-4 4 -4 16q0 24 16 66q11 28 24 53.5t36 60l32 48t44 60t39 51.5q25 34 52 86q37 74 37 120q0 35 -20 47t-66 12h-185q-14 0 -23.5 -10t-9.5 -23t9.5 -23t23.5 -10h156q24 0 28 -4q5 -5 5 -17
q0 -29 -20 -66q-15 -28 -97.5 -141t-93.5 -135q-5 -11 -16 -30t-18 -34.5t-14 -36.5q-21 -68 -21 -98q0 -64 71 -64z" />
    <glyph glyph-name="bracketleft" unicode="[" horiz-adv-x="232" 
d="M170 -225q12 0 19.5 8.5t7.5 21.5q0 20 -27 39q-54 38 -60 97q-3 24 -3 58v481q0 37 1 45q7 52 50 85q8 6 21 15q19 12 19 33q0 11 -9.5 19.5t-21.5 8.5q-15 0 -37 -13.5t-35 -26.5q-30 -29 -50 -78q-11 -26 -11 -89v-480q0 -56 4 -74q16 -65 59 -106q46 -44 73 -44z" />
    <glyph glyph-name="backslash" unicode="\" horiz-adv-x="361" 
d="M305 -5q14 0 23 10t9 24q0 9 -10 36l-234 598q-9 23 -34 23q-14 0 -24.5 -10.5t-10.5 -25.5q0 -7 33 -91l215 -546q7 -18 33 -18z" />
    <glyph glyph-name="bracketright" unicode="]" horiz-adv-x="232" 
d="M62 -225q27 0 73 44q43 41 59 106q4 18 4 74v480q0 63 -11 89q-20 49 -50 78q-13 13 -35 26.5t-37 13.5q-12 0 -21.5 -8.5t-9.5 -19.5q0 -21 19 -33q13 -9 21 -15q43 -33 50 -85q1 -8 1 -45v-481q0 -34 -3 -58q-6 -59 -60 -97q-27 -19 -27 -39q0 -13 7.5 -21.5t19.5 -8.5
z" />
    <glyph glyph-name="asciicircum" unicode="^" horiz-adv-x="392" 
d="M196 619q10 0 30 -19q40 -38 94 -74q20 -13 29 -13q19 0 19 16q0 12 -33 40q-32 28 -71 68l-13 13l-12.5 12.5l-10 10t-9.5 9t-8 6.5t-8 4t-7 1t-7 -1t-8 -4t-8 -6.5t-9.5 -9l-10 -10l-12.5 -12.5l-13 -13q-39 -40 -71 -68q-33 -28 -33 -40q0 -16 19 -16q9 0 29 13
q54 36 94 74q20 19 30 19z" />
    <glyph glyph-name="underscore" unicode="_" horiz-adv-x="541" 
d="M512 -196q0 14 -10 23.5t-23 9.5h-417q-14 0 -23.5 -9.5t-9.5 -23.5t9.5 -23.5t23.5 -9.5h417q13 0 23 9.5t10 23.5z" />
    <glyph glyph-name="grave" unicode="`" horiz-adv-x="174" 
d="M71 680q-37 0 -37 -35q0 -13 9 -23.5t37 -29.5l70 -48l-40 113q-8 23 -39 23z" />
    <glyph glyph-name="a" unicode="a" horiz-adv-x="483" 
d="M142 0h278q14 0 24 9.5t10 23.5t-10 24t-24 10h-9q-24 0 -24 13v75q-1 77 -3.5 102t-12.5 52q-25 73 -96 121q-47 31 -93 42q-23 5 -33 5q-15 0 -26.5 -10t-11.5 -24q0 -25 36 -34q9 -2 33 -11q27 -11 27 -16q0 -8 -27 -41q-19 -24 -59 -76q-47 -63 -75 -117
q-17 -32 -17 -60q0 -62 58 -82q16 -6 55 -6zM297 68q-5 -1 -76 -1q-74 0 -81 1q-28 3 -28 29q0 19 33 72q21 33 68.5 97.5t54.5 64.5q9 0 21 -28q12 -27 16 -54t4 -98q0 -59 -1.5 -70t-10.5 -13z" />
    <glyph glyph-name="b" unicode="b" horiz-adv-x="513" 
d="M54 -6q23 0 57 49q12 18 13 18q4 0 8 -6q45 -59 137 -59q88 0 149 64q66 69 66 171t-61 169q-63 68 -156 68q-62 0 -106 -30l-14 -9q-1 1 -1 82v140q0 17 -11 28t-28 11t-28 -11t-11 -28v-458q0 -61 -5 -84.5t-20 -43.5q-19 -27 -19 -43q0 -11 10 -19.5t20 -8.5zM255 63
q-24 0 -58 19q-51 29 -51 99v82q0 36 5 54q11 40 41.5 63t74.5 23q61 0 100 -49q37 -46 37 -119q0 -66 -34 -114q-42 -58 -115 -58z" />
    <glyph glyph-name="c" unicode="c" horiz-adv-x="431" 
d="M316 -1h44q14 0 24.5 10t10.5 24t-10.5 24.5t-24.5 10.5h-45q-80 0 -121 20q-87 44 -87 150q0 74 52 123q48 46 107 46q18 0 33 -6t15 -15q0 -6 -17 -30q-23 -31 -23 -45q0 -13 9 -21.5t23 -8.5q19 0 52 43q39 51 39 69q0 35 -61 63q-40 18 -85 18q-105 0 -176 -94
q-46 -60 -46 -140q0 -82 44 -141q41 -54 94 -77q54 -23 149 -23z" />
    <glyph glyph-name="d" unicode="d" horiz-adv-x="510" 
d="M486 26q0 13 -21 47q-13 21 -17 53q-2 24 -2 37l3 491q0 16 -11.5 27.5t-27.5 11.5t-27.5 -11.5t-11.5 -27.5l-1 -112q0 -110 -3 -110q-5 0 -15 7q-17 12 -40 20q-30 11 -61 11q-47 0 -74 -11q-47 -18 -80 -51q-68 -69 -68 -174q-2 -109 68 -176q62 -60 142 -60
q56 0 99 25q24 13 42 34q7 7 8 7l13 -20q31 -48 55 -48q13 0 21.5 8.5t8.5 21.5zM248 65q-68 0 -107 60q-33 48 -32 112q0 54 22 94q40 74 115 74q54 0 86 -32q23 -21 31 -57q6 -30 6 -87l-1 -42q0 -31 -8 -51q-19 -49 -74 -66q-17 -5 -38 -5z" />
    <glyph glyph-name="e" unicode="e" horiz-adv-x="440" 
d="M406 32q0 14 -10 24t-24 10h-50q-72 0 -104 9q-15 4 -15 12l28 40q57 80 107 146q40 53 53.5 75.5t13.5 38.5q0 40 -57 68q-36 18 -84 18q-102 0 -171 -75q-64 -70 -64 -164q0 -96 60 -159q36 -38 73 -53t101 -22q8 -1 59 -1h50q14 0 24 9.5t10 23.5zM138 134
q-13 0 -28 52q-5 18 -5 45q0 67 44 117q51 58 119 58q54 0 54 -19q0 -11 -80 -118q-25 -33 -76 -107q-20 -28 -28 -28z" />
    <glyph glyph-name="f" unicode="f" horiz-adv-x="300" 
d="M138 -230q16 0 27.5 11t11.5 28v568q0 15 4 19q5 6 26 6h15q14 0 24.5 10.5t10.5 24.5t-10.5 24.5t-24.5 10.5h-10q-26 0 -30 4q-5 5 -5 39q0 37 12 54q17 24 50 48q13 9 18.5 13.5t9.5 11.5t4 16q0 14 -9 25t-23 11q-21 0 -51 -19.5t-52 -47.5q-37 -48 -37 -119v-17
q0 -12 -4 -15q-4 -4 -19 -4h-12q-14 0 -24.5 -10.5t-10.5 -24.5t10.5 -24.5t24.5 -10.5h7q17 0 23 -6q5 -7 5 -18v-569q0 -17 11.5 -28t27.5 -11z" />
    <glyph glyph-name="g" unicode="g" horiz-adv-x="472" 
d="M237 -223q6 0 10 1t8.5 4.5t6.5 5.5l9 9t10 11q44 50 55 65q41 52 41 70q0 13 -5.5 21.5t-26.5 26.5q-32 28 -32 39q0 8 24 33q6 7 10 11q42 43 59.5 69.5t29.5 59.5q7 21 7 47q0 58 -32 107t-83 75q-12 6 -24 10q-9 2 -9 5t8 12q1 2 12 15.5t15 18.5q7 11 7 22
q0 15 -10.5 25t-25.5 10q-13 0 -33 -20q-25 -25 -59 -67q-3 -4 -6.5 -7t-5.5 -4t-10.5 -4t-13.5 -5q-65 -26 -105 -77q-39 -50 -39 -115q0 -86 61 -149q39 -39 66 -39q16 0 26 10.5t10 25.5q0 19 -36 49q-28 22 -40 64q-5 17 -5 36q0 49 28 85q39 49 96 49q75 0 115 -71
q15 -27 15 -60q0 -32 -23 -72q-11 -20 -40 -49q-63 -66 -72 -79q-8 -13 -8 -23q0 -5 1 -9t4.5 -8.5t6.5 -7.5t11 -10.5t13 -12.5q23 -23 27.5 -28t4.5 -11q0 -9 -47 -71q-33 -45 -33 -62q0 -13 7.5 -22t19.5 -9z" />
    <glyph glyph-name="h" unicode="h" horiz-adv-x="456" 
d="M73 -3q17 0 28 11.5t11 27.5v233q0 36 7 57t29 42q29 29 76 29q43 0 76 -34q33 -35 33 -84q0 -30 -8 -57q-12 -42 -73 -131q-33 -48 -33 -63q0 -19 23 -28q5 -2 29 -2h127q14 0 24 10t10 24t-10 24t-24 10h-46q-24 0 -24 3q0 5 11 21q29 42 47 82q28 65 28 110
q0 60 -36 114q-26 39 -66 56q-41 17 -85 17q-50 0 -93 -28q-3 -2 -8 -6t-8 -6.5t-4 -2.5l-2 11v212q0 17 -11 28t-28 11t-28 -11t-11 -28v-613q0 -16 11 -27.5t28 -11.5z" />
    <glyph glyph-name="i" unicode="i" horiz-adv-x="177" 
d="M123 2q11 0 20.5 7.5t9.5 18.5q0 12 -17 38q-16 24 -19 36t-3 45l2 287q0 16 -12 28t-28 12t-28 -12t-12 -28l-2 -267q0 -49 2 -59q7 -43 42 -78q28 -28 45 -28zM74 545q20 0 34.5 14.5t14.5 33.5q0 17 -12.5 29t-32.5 12t-33 -12.5t-13 -31.5q0 -18 12 -31.5t30 -13.5z
" />
    <glyph glyph-name="j" unicode="j" horiz-adv-x="189" 
d="M114 545q20 0 34 14t14 34q0 19 -13.5 30.5t-32.5 11.5t-33 -12t-14 -32q0 -18 13 -32t32 -14zM-50 -222q9 0 17 5q17 9 57 69q28 40 58 80q55 75 67 112q6 22 6 115v276q0 17 -11.5 28t-27.5 11t-27.5 -11t-11.5 -28v-295q0 -52 -2 -64q-5 -34 -48 -94q-32 -46 -78 -114
q-30 -44 -30 -59q0 -14 9 -22.5t22 -8.5z" />
    <glyph glyph-name="k" unicode="k" horiz-adv-x="439" 
d="M377 0q14 0 23.5 11t9.5 26q0 7 -4 17q-4 9 -42 60q-29 39 -64 87q-13 19 -13 32q0 18 51 79q17 20 24.5 30t15.5 26t8 29q0 34 -19 53q-18 17 -35.5 21.5t-60.5 4.5h-147q-8 0 -10 4t-2 18v157q0 17 -11 28t-28 11t-28 -11t-11 -28v-614q0 -17 11 -28t28 -11t28 11
t11 28v352q0 12 12 12h170q13 0 13 -10q0 -6 -29 -43q-20 -25 -35 -44q-39 -50 -39 -76q0 -15 13 -39q13 -23 91 -128q2 -2 11.5 -14.5t14.5 -19.5q15 -19 22.5 -25t20.5 -6z" />
    <glyph glyph-name="l" unicode="l" horiz-adv-x="174" 
d="M119 -2q12 0 21.5 8.5t9.5 20.5q0 14 -16.5 36.5t-19.5 39.5q-2 10 -2 52l3 492q0 17 -11.5 28t-27.5 11t-27.5 -11t-11.5 -28l-3 -498q0 -43 1 -49q5 -32 41 -73q26 -29 43 -29z" />
    <glyph glyph-name="m" unicode="m" horiz-adv-x="721" 
d="M73 -1q17 0 28 11.5t11 27.5v196q0 79 6 103q7 26 32 44.5t54 18.5q34 0 63.5 -23.5t30.5 -56.5l1 -52v-229q0 -17 11.5 -28t27.5 -11t27.5 11t11.5 28v199q0 42 1 57q3 49 35 77q39 33 75 33q33 0 58 -16q54 -35 54 -99q0 -19 -5 -43q-12 -54 -78 -151q-31 -46 -31 -61
q0 -16 10.5 -25.5t28.5 -9.5h138q14 0 24 10t10 24t-10 24t-24 10h-41q-34 0 -36 2l13 21q48 75 50 79q31 58 31 116q0 51 -29 103q-6 10 -22.5 26.5t-29.5 25.5q-48 32 -109 32q-29 0 -56 -10q-36 -13 -71 -38q-1 -1 -4.5 -4t-6.5 -5t-4 -2q-4 0 -15 10q-26 21 -58 35
q-29 12 -62 12q-41 0 -92 -32q-12 -8 -13 -8q-2 0 -4 11q-6 30 -33 31q-26 0 -33 -23q-4 -12 -4 -43v-369q0 -16 11 -27.5t28 -11.5z" />
    <glyph glyph-name="n" unicode="n" horiz-adv-x="451" 
d="M73 1q17 0 28 11.5t11 27.5v234q0 44 15 74q29 52 93 52q45 0 75 -31q37 -37 37 -88q0 -23 -7 -48q-8 -29 -21 -54t-53 -82q-34 -48 -34 -66q0 -25 33 -30q8 -1 97 -1h46q14 0 24 10t10 24t-10 24t-24 10h-32q-39 0 -40 2q-1 3 27 47q63 96 63 172q0 34 -15 70t-38 60
q-52 52 -130 52q-55 0 -108 -34q-10 -7 -11 -7l-1 2q0 2 -0.5 5t-0.5 5q-3 14 -12.5 23.5t-22.5 9.5q-32 0 -36 -36q-2 -16 -2 -35v-364q0 -16 11 -27.5t28 -11.5z" />
    <glyph glyph-name="o" unicode="o" horiz-adv-x="557" 
d="M252 38q0 18 -33 35q-55 27 -83 67q-29 41 -29 90q0 20 9 51t22 50q53 79 147 79q71 0 113 -47q52 -58 52 -132q0 -52 -36 -98q-29 -36 -80 -63q-28 -15 -28 -33q0 -12 9 -23.5t20 -11.5q24 0 68 27q75 47 106 119q19 46 19 96q0 100 -79 171q-70 64 -169 64
q-106 0 -177 -71q-74 -73 -74 -178q0 -46 21 -91q38 -82 127 -125q23 -11 38 -11q17 0 27 9.5t10 25.5z" />
    <glyph glyph-name="p" unicode="p" horiz-adv-x="513" 
d="M109 -230q17 0 28 11t11 28v113q0 117 2 117l15 -9q48 -30 106 -30q91 0 150 62q28 30 45.5 74t17.5 85q0 81 -34 143q-27 48 -77.5 78t-106.5 30q-74 0 -128 -51q-4 -4 -7.5 -8t-5.5 -5.5t-3 -1.5l-7 11q-14 24 -33 43q-14 14 -28 14q-12 0 -21 -9t-9 -20q0 -13 22 -49
q19 -32 22 -52q2 -18 2 -69v-466q0 -17 11 -28t28 -11zM268 66q-42 0 -73 23t-42 63q-5 18 -5 77q0 86 9 112q10 27 39 45.5t64 18.5q58 0 99 -45q46 -52 46 -130q0 -67 -36 -114q-38 -50 -101 -50z" />
    <glyph glyph-name="q" unicode="q" horiz-adv-x="514" 
d="M406 -230q16 0 27.5 11t11.5 28v469q0 50 3 68q4 25 22 56q3 5 7 11l6 9t4 7t2.5 7.5t0.5 8.5q0 13 -7.5 21t-20.5 8q-24 0 -57 -49q-13 -19 -14 -19q-2 0 -13 13q-46 53 -131 53q-98 0 -160 -75q-58 -73 -58 -171q0 -94 67 -166q58 -60 147 -60q59 0 108 30q4 2 7 4.5
t4.5 3.5t2.5 1q2 0 2 -120v-110q0 -17 11.5 -28t27.5 -11zM243 65q-28 0 -54.5 14t-43.5 37q-36 49 -36 104q0 76 33 122q46 63 111 63q51 0 79 -31q31 -33 34 -78q1 -20 1 -82q0 -60 -16 -91q-15 -29 -44.5 -43.5t-63.5 -14.5z" />
    <glyph glyph-name="r" unicode="r" horiz-adv-x="285" 
d="M73 -3q17 0 28 11.5t11 27.5v225q0 41 5 64q8 32 30.5 49.5t58.5 27.5q5 2 12 4t11.5 3t6.5 2q20 9 20 28q0 32 -38 32q-41 0 -89 -28q-16 -9 -18 -9t-2 8q0 14 -11 24t-25 10q-13 0 -23.5 -8.5t-13.5 -19.5q-2 -7 -2 -48v-364q0 -16 11 -27.5t28 -11.5z" />
    <glyph glyph-name="s" unicode="s" horiz-adv-x="310" 
d="M-27 -230q17 0 41 32l158 212q46 60 66 100q14 28 14 53q0 40 -51 105l-72 93q-12 17 -12 23q0 10 5.5 12t26.5 2h96q15 0 25.5 10t10.5 25t-10.5 25.5t-25.5 10.5h-55q-93 0 -115 -10q-43 -18 -43 -67q0 -20 8 -36q4 -7 77 -101q16 -20 34 -46q21 -31 21 -45
q0 -23 -25 -60l-189 -265q-19 -26 -19 -38q0 -16 9.5 -25.5t24.5 -9.5z" />
    <glyph glyph-name="t" unicode="t" horiz-adv-x="281" 
d="M183 -2q11 0 19 8t8 19q0 17 -12 33q-23 31 -23 67l2 261q0 13 4 17q6 5 24 5h15q14 0 23 9t9 22t-9 22.5t-23 9.5h-23q-12 0 -16 4t-4 15v77q1 16 -10 27.5t-28 11.5q-16 0 -27.5 -11t-12.5 -28v-79q0 -10 -4 -13q-5 -4 -25 -4h-10q-13 0 -22 -9t-9 -23q0 -13 8.5 -22
t22.5 -9h10q21 0 25 -4q4 -3 4 -18l-2 -243q0 -37 5 -52q13 -40 43 -69q24 -24 38 -24z" />
    <glyph glyph-name="u" unicode="u" horiz-adv-x="437" 
d="M192 70q-36 0 -58 27t-22 76v261q0 16 -11 27.5t-28 11.5t-28 -11.5t-11 -27.5v-264q0 -33 3 -48q7 -42 41 -76q46 -48 113 -48q62 0 110 57l12 13l8 -12q38 -57 64 -57q9 0 18.5 9.5t9.5 19.5q0 12 -18 43q-10 16 -19 41q-4 13 -4 64v256q0 16 -11 27.5t-28 11.5
t-28 -11.5t-11 -27.5v-236q0 -37 -4 -53q-6 -25 -25 -44q-30 -29 -73 -29z" />
    <glyph glyph-name="v" unicode="v" horiz-adv-x="415" 
d="M144 -1q19 0 60 49q3 3 28.5 33t31 37.5t26 33.5t28.5 39t21 34.5t20 39.5t11 37q11 46 11 106v26q0 16 -11.5 27.5t-27.5 11.5t-27.5 -11.5t-11.5 -27.5v-38q-5 -94 -26 -135q-12 -24 -61.5 -91t-60.5 -67q-7 0 -17 18t-17 43q-9 35 -9 175v96q0 17 -11 28t-28 11
t-28 -11t-11 -28v-111q0 -141 7 -173q10 -51 42 -103q30 -49 61 -49z" />
    <glyph glyph-name="w" unicode="w" horiz-adv-x="549" 
d="M69 -1q19 0 36 18q3 4 20 23.5t36.5 43t33.5 39.5q37 45 42 45q1 0 1 -12v-61q0 -51 1 -63.5t7 -19.5q10 -13 27 -13t35 18q50 50 113 131q50 64 67 98q16 33 21.5 62.5t5.5 86.5v42q0 15 -11 26t-26 11t-26 -11t-11 -26v-56q0 -70 -17 -109q-15 -32 -66 -97
q-47 -59 -50 -59q-4 0 -4 66v158q0 14 -10 23.5t-23 9.5t-23 -9.5t-10 -23.5v-25q0 -25 -9 -47q-12 -26 -94 -120q-23 -25 -25 -25t-2 34v277q0 15 -11 26t-26 11t-26 -11t-11 -26v-379q0 -33 8 -43q10 -13 27 -13z" />
    <glyph glyph-name="x" unicode="x" horiz-adv-x="452" 
d="M66 -3q18 0 31 17l116 141l16 19q3 0 7 -6l103 -133q19 -24 26.5 -30t21.5 -6q13 0 22 10t9 24q0 16 -26 49l-86 113q-18 23 -18 38t22 45l87 120q18 25 18 36q0 16 -8 27.5t-23 11.5q-21 0 -37 -22l-110 -156q-5 -6 -7 -6q-1 0 -8 9l-121 156q-10 12 -16 15t-18 3
q-13 0 -23 -10t-10 -23q0 -11 14 -31l89 -117q31 -41 31 -55q0 -16 -31 -56l-82 -107q-21 -28 -21 -41q0 -14 9.5 -24.5t22.5 -10.5z" />
    <glyph glyph-name="y" unicode="y" horiz-adv-x="457" 
d="M76 -230q16 0 26 13q14 18 46 66q139 207 192 299q35 60 59 140q24 79 24 132v13q0 19 -9.5 30t-24.5 11q-26 0 -36 -20q-4 -8 -7 -29q-9 -68 -14 -90q-22 -101 -97 -219q-3 -4 -6 -9t-5 -8t-4 -6.5t-3.5 -6t-3 -4.5t-3 -3t-2.5 -2t-2.5 -1.5t-2.5 -0.5q-7 0 -41 29
q-21 19 -33 47q-17 39 -17 151v132q0 16 -11 27.5t-28 11.5t-28 -11.5t-11 -27.5v-99q0 -93 10 -153q9 -51 31 -85t65 -68q3 -3 6.5 -5.5t6 -4t4.5 -3t3 -2.5t1.5 -2.5t0.5 -2.5q0 -2 -8 -15l-107 -168q-7 -10 -7 -22q0 -14 10.5 -24t25.5 -10z" />
    <glyph glyph-name="z" unicode="z" horiz-adv-x="393" 
d="M133 -1h196q14 0 24.5 10t10.5 24t-10.5 24.5t-24.5 10.5h-184q-26 0 -26 3q0 2 11 16l177 231q57 74 57 104q0 19 -12 34q-13 17 -37 17h-215q-14 0 -24.5 -10.5t-10.5 -24.5t10.5 -24.5t24.5 -10.5h144q29 0 29 -3q0 -2 -15 -22l-176 -230q-53 -69 -53 -96
q0 -24 17 -39q12 -10 24 -12t63 -2z" />
    <glyph glyph-name="braceleft" unicode="{" horiz-adv-x="296" 
d="M234 -225q12 0 19.5 8.5t7.5 21.5q0 20 -27 39q-54 38 -60 97q-3 24 -3 58v93q0 48 -4 59.5t-23 27.5q-33 29 -33 50q0 4 1 7.5t2 6.5t4 7l4.5 6t6.5 6.5t7 6.5l8 8t9 8q12 11 15 22.5t3 50.5v122q0 37 1 45q7 52 50 85q8 6 21 15q19 12 19 33q0 11 -9.5 19.5t-21.5 8.5
q-15 0 -37 -13.5t-35 -26.5q-30 -29 -50 -78q-11 -26 -11 -89v-69q0 -85 -4 -99q-2 -9 -19 -22q-46 -34 -46 -57q0 -17 8.5 -27.5t31.5 -29.5q25 -20 27 -33q2 -12 2 -108v-35q0 -56 4 -74q16 -65 59 -106q46 -44 73 -44z" />
    <glyph glyph-name="bar" unicode="|" horiz-adv-x="138" 
d="M69 -229q14 0 24.5 10.5t10.5 24.5v846q0 14 -10.5 24.5t-24.5 10.5t-24.5 -10.5t-10.5 -24.5v-846q0 -14 10.5 -24.5t24.5 -10.5z" />
    <glyph glyph-name="braceright" unicode="}" horiz-adv-x="296" 
d="M62 -225q27 0 73 44q43 41 59 106q4 18 4 74v35q0 96 2 108q2 13 27 33q23 19 31.5 29.5t8.5 27.5q0 23 -46 57q-17 13 -19 22q-4 14 -4 99v69q0 63 -11 89q-20 49 -50 78q-13 13 -35 26.5t-37 13.5q-12 0 -21.5 -8.5t-9.5 -19.5q0 -21 19 -33q13 -9 21 -15
q43 -33 50 -85q1 -8 1 -45v-122q0 -39 3 -50.5t15 -22.5q3 -2 9 -8l8 -8t7 -6.5t6.5 -6.5l4.5 -6t4 -7t2 -6.5t1 -7.5q0 -21 -33 -50q-19 -16 -23 -27.5t-4 -59.5v-93q0 -34 -3 -58q-6 -59 -60 -97q-27 -19 -27 -39q0 -13 7.5 -21.5t19.5 -8.5z" />
    <glyph glyph-name="asciitilde" unicode="~" horiz-adv-x="430" 
d="M56 179q11 0 35 31q25 29 50 29q9 0 20 -4.5t18.5 -9t19.5 -13t16 -11.5q41 -27 82 -27q33 0 66 30.5t33 57.5q0 26 -22 26q-11 0 -35 -31q-25 -29 -50 -29q-9 0 -20 4.5t-18.5 9t-19.5 13t-16 11.5q-41 27 -82 27q-33 0 -66 -30.5t-33 -57.5q0 -26 22 -26z" />
    <glyph glyph-name="exclamdown" unicode="&#xa1;" horiz-adv-x="254" 
d="M127 220q-16 0 -27 -11t-11 -27v-374q0 -16 11 -27t27 -11t27 11t11 27v374q0 16 -11 27t-27 11zM130 391q-20 0 -34 -13.5t-14 -32.5q0 -18 12.5 -30.5t32.5 -12.5t33 12.5t13 31.5q0 18 -12.5 31.5t-30.5 13.5z" />
    <glyph glyph-name="cent" unicode="&#xa2;" horiz-adv-x="471" 
d="M260 -111q14 0 24.5 10.5t10.5 24.5v55q0 13 4 17q2 2 12 4q53 12 90 39q20 14 28 23.5t8 25.5q0 33 -26 33q-14 0 -35 -13q-52 -34 -101 -34q-71 0 -122 42q-56 46 -56 119q0 70 55 120q50 47 114 47q34 0 53.5 -4.5t47.5 -19.5q26 -13 37 -13q12 0 20 10.5t8 22.5
q0 17 -11 27q-40 34 -106 48q-16 3 -17 5q-3 4 -3 38v32q0 14 -10.5 24.5t-24.5 10.5t-24.5 -10.5t-10.5 -24.5v-33q0 -13 -0.5 -19.5t-0.5 -12t-2.5 -7t-3 -2.5t-6 -1.5t-8.5 -1.5q-41 -9 -80 -41q-44 -34 -69.5 -87t-25.5 -109q0 -127 103 -195q46 -29 79 -36q8 -1 11 -6
t3 -17v-56q0 -14 10.5 -24.5t24.5 -10.5z" />
    <glyph glyph-name="sterling" unicode="&#xa3;" horiz-adv-x="452" 
d="M423 29q0 13 -9.5 23t-23.5 10h-241q-16 0 -16 4q0 2 6 12q2 4 11 16t15.5 22t9.5 18q17 42 17 102q0 27 7 34q6 7 44 7h34q14 0 23.5 9.5t9.5 22.5t-10 23t-23 10h-36q-39 0 -44 5t-5 18v20q0 57 6.5 84t27.5 46q29 25 62 25q25 0 53 -16q20 -12 29 -12q12 0 22 8.5
t10 20.5q0 29 -40 47q-35 16 -74 16q-73 0 -121 -50q-30 -32 -38.5 -59t-8.5 -84q0 -60 -5 -65q-4 -4 -16 -4h-26q-13 0 -22.5 -9.5t-9.5 -23.5q0 -13 9.5 -22.5t22.5 -9.5h16q21 0 27 -5q4 -4 4 -21v-20q0 -20 -6 -50q-4 -19 -14 -35t-38 -52q-33 -44 -33 -56q0 -26 35 -38
q8 -3 51 -3h275q14 0 23.5 9.5t9.5 22.5z" />
    <glyph glyph-name="currency" unicode="&#xa4;" horiz-adv-x="536" 
d="M269 5q63 0 126 33l12 6q2 0 17 -13q34 -32 51 -32q25 0 27 26q0 20 -27 48q-18 18 -18 23q0 3 9 18q32 54 32 130q0 66 -35 121q-2 3 -4.5 6.5t-4 5.5t-1.5 4q0 3 13 14q32 28 32 54q0 27 -30 27q-9 0 -15 -3q-19 -9 -41 -34q-13 -13 -14 -13t-2.5 1t-6 4.5t-10.5 6.5
q-51 26 -114 26q-56 0 -102 -25l-25 -13q-1 0 -22 21l-7 7t-6.5 6t-6 5t-6 5t-5.5 3t-6.5 3t-6.5 1.5t-8 0.5q-12 0 -19 -7.5t-7 -18.5q0 -21 29 -50q19 -19 19 -25q0 -2 -3.5 -7.5t-8.5 -13l-7 -10.5q-27 -47 -27 -111q0 -31 10.5 -67.5t26.5 -57.5q5 -7 5 -9q0 -3 -21 -24
q-27 -27 -27 -50q0 -26 27 -26q18 0 48 30q19 18 23 18q3 0 7 -3.5t7 -5.5q54 -35 123 -35zM274 76q-68 0 -115.5 46.5t-47.5 112.5q0 68 48 113t119 45q60 0 104.5 -48t44.5 -106q0 -66 -45.5 -114.5t-107.5 -48.5z" />
    <glyph glyph-name="yen" unicode="&#xa5;" 
d="M232 -4q16 0 27 11t11 27v76q0 21 5 25q8 7 38 7h25q14 0 24.5 10.5t10.5 24.5t-10.5 24.5t-24.5 10.5h-33q-25 0 -30 9q-3 5 -3 16q0 9 3 19q11 33 47 95q3 5 30 49.5t39 69.5q17 33 32 85t15 85q0 50 -34 50q-22 0 -30.5 -14t-15.5 -55q-19 -109 -73 -193q-1 -2 -7 -12
t-12.5 -20.5t-13.5 -21t-12.5 -17.5t-8.5 -7q-4 0 -11 10t-35 60q-39 69 -54.5 109.5t-27.5 106.5q-6 33 -13.5 43t-25.5 10q-35 0 -35 -41q0 -34 15 -90t37 -97q4 -8 15.5 -29.5t24 -44.5t23.5 -43q11 -18 29 -57q19 -39 19 -53q0 -8 -4 -13q-7 -9 -30 -9h-27
q-14 0 -24.5 -10.5t-10.5 -24.5t10.5 -24.5t24.5 -10.5h41q13 0 18 -7q4 -5 4 -23v-78q0 -16 11 -27t27 -11z" />
    <glyph glyph-name="brokenbar" unicode="&#xa6;" horiz-adv-x="138" 
d="M69 270q14 0 24.5 10.5t10.5 24.5v347q0 14 -10.5 24.5t-24.5 10.5t-24.5 -10.5t-10.5 -24.5v-347q0 -14 10.5 -24.5t24.5 -10.5zM69 -229q14 0 24.5 10.5t10.5 24.5v347q0 14 -10.5 24.5t-24.5 10.5t-24.5 -10.5t-10.5 -24.5v-347q0 -14 10.5 -24.5t24.5 -10.5z" />
    <glyph glyph-name="section" unicode="&#xa7;" horiz-adv-x="377" 
d="M177 -231q19 0 39 22q63 68 63 145q0 28 -4.5 49t-4.5 27q0 9 15 27q63 74 63 144q0 17 -25 139q-10 48 -25.5 76t-44.5 49q-26 20 -48 26q-13 4 -17 7q-13 11 -13 51q0 36 40 84q20 24 20 38q0 15 -8 25.5t-19 10.5q-15 0 -34.5 -17.5t-35.5 -43.5q-32 -51 -32 -109
q0 -9 2 -22t2 -20q0 -4 -1.5 -8t-3.5 -6t-6.5 -6t-6.5 -7q-63 -71 -63 -145q0 -12 12 -84q12 -61 17 -79q10 -39 22.5 -61.5t35.5 -41.5q29 -25 60 -33q12 -3 18 -9q15 -17 15 -69q0 -37 -36 -81q-24 -31 -24 -44q0 -14 7.5 -24t20.5 -10zM215 75q-19 0 -47 19
q-19 12 -27.5 30.5t-20.5 74.5q-21 100 -21 113q0 20 11 44q25 51 52 51q10 0 31.5 -11.5t29.5 -21.5q12 -13 18 -27.5t14 -55.5l8 -36t10 -47.5t4 -30.5q0 -19 -11 -44q-7 -16 -23.5 -37t-27.5 -21z" />
    <glyph glyph-name="dieresis" unicode="&#xa8;" horiz-adv-x="320" 
d="M246 544q20 0 35 14t15 34q0 19 -14 30.5t-32 11.5q-19 0 -33 -13t-14 -31q0 -17 12.5 -31.5t30.5 -14.5zM68 546q20 0 34 13.5t14 32.5q0 18 -12.5 30t-31.5 12q-20 0 -34 -12.5t-14 -30.5t13.5 -31.5t30.5 -13.5z" />
    <glyph glyph-name="copyright" unicode="&#xa9;" horiz-adv-x="530" 
d="M261 636q80 0 126 -43q59 -57 59 -135q0 -54 -22 -95q-32 -58 -82 -78q-38 -15 -42 -35q0 -22 23 -22q12 0 32 7q75 27 117 104q29 53 29 115q0 101 -72 171q-65 63 -167 63q-99 0 -166 -68t-67 -173q0 -72 44 -131q38 -52 98 -79q20 -9 33 -9q26 0 26 19q0 13 -6 19
t-28 17q-55 28 -85 75q-27 44 -27 93q0 76 51 130q52 55 126 55zM335 361q0 7 -5 12t-12 5h-19q-30 0 -52 11q-42 19 -42 67q0 34 22 55q27 25 58 25q7 0 7 -2t-3 -5q-8 -10 -8 -17q0 -13 14 -13q11 0 27 21q10 13 10 22q0 12 -19 20q-11 5 -30 5q-54 0 -88 -37
q-31 -32 -31 -78q0 -39 31 -70q31 -29 68 -36q10 -2 36 -2h19q7 0 12 5t5 12z" />
    <glyph glyph-name="ordfeminine" unicode="&#xaa;" horiz-adv-x="670" 
d="M283 276q-41 0 -41 5q0 4 2 7l161 219q31 42 38 42q6 0 17 -14t18 -30q10 -23 13 -45.5t5 -87.5q1 -26 1 -61q0 -27 -3 -32q-3 -3 -25 -3h-186zM163 178q17 22 22 28q6 6 18 6h274q15 0 17.5 -3.5t2.5 -19.5v-152q0 -15 11 -26t26 -11t26 11t11 26v152q0 16 4 20
q6 3 22 3h12q13 0 22.5 9t9.5 23t-9.5 23t-22.5 9h-12q-22 0 -23 2q-3 3 -3 31v28q0 75 -7 126q-9 73 -56 130q-42 54 -121 86q-41 17 -66 17q-18 0 -29.5 -8.5t-11.5 -23.5q0 -14 8.5 -22t33.5 -18q57 -22 57 -34q0 -1 -25 -35l-367 -495q-8 -11 -8 -23q0 -15 10.5 -25
t25.5 -10q18 0 30 16z" />
    <glyph glyph-name="uni00AD" unicode="&#xad;" horiz-adv-x="401" 
d="M367 233q0 13 -9.5 23t-23.5 10h-267q-13 0 -23 -10t-10 -23t10 -23t23 -10h267q14 0 23.5 10t9.5 23z" />
    <glyph glyph-name="registered" unicode="&#xae;" horiz-adv-x="530" 
d="M206 344q8 0 13.5 5.5t5.5 12.5v168q0 9 2 11q1 1 12 1h52q13 0 13 -3l-14 -16q-24 -27 -24 -36q0 -15 18 -15q35 0 37 -24q1 -7 1 -27v-59q0 -8 5 -13t13 -5t13.5 5.5t5.5 12.5v69q0 17 -1 24q-3 25 -33 40q-2 1 -5 2l-4.5 1.5t-1.5 1.5q0 3 13 16q16 17 16 30
q0 14 -14 21q-10 5 -36 5h-119q-6 0 -10.5 -4.5t-4.5 -10.5t4.5 -10.5t10.5 -4.5h4q8 0 9 -1t1 -11v-168q0 -8 5 -13t13 -5zM261 636q80 0 126 -43q59 -57 59 -135q0 -54 -22 -95q-32 -58 -82 -78q-38 -15 -42 -35q0 -22 23 -22q12 0 32 7q75 27 117 104q29 53 29 115
q0 101 -72 171q-65 63 -167 63q-99 0 -166 -68t-67 -173q0 -72 44 -131q38 -52 98 -79q20 -9 33 -9q26 0 26 19q0 13 -6 19t-28 17q-55 28 -85 75q-27 44 -27 93q0 76 51 130q52 55 126 55z" />
    <glyph glyph-name="macron" unicode="&#xaf;" horiz-adv-x="541" 
d="M512 822q0 14 -10 23.5t-23 9.5h-417q-14 0 -23.5 -9.5t-9.5 -23.5t9.5 -23.5t23.5 -9.5h417q13 0 23 9.5t10 23.5z" />
    <glyph glyph-name="degree" unicode="&#xb0;" horiz-adv-x="288" 
d="M147 472q45 0 76 32.5t31 77.5q0 47 -31 78t-79 31q-45 0 -77.5 -32.5t-32.5 -76.5q0 -48 33 -79t80 -31zM145 522q-25 0 -42.5 17t-17.5 43q0 25 18 42t43 17q24 0 40.5 -17t16.5 -41q0 -26 -16 -43.5t-42 -17.5z" />
    <glyph glyph-name="plusminus" unicode="&#xb1;" horiz-adv-x="551" 
d="M517 33q0 13 -9.5 23t-23.5 10h-417q-13 0 -23 -10t-10 -23t10 -23t23 -10h417q14 0 23.5 10t9.5 23zM275 148q15 0 25.5 10t10.5 25v166h165q14 0 24 10t10 24t-10 24t-24 10h-165v165q0 15 -10.5 25.5t-25.5 10.5t-25 -10.5t-10 -25.5v-165h-165q-14 0 -24 -10t-10 -24
t10 -24t24 -10h165v-166q0 -15 10 -25t25 -10z" />
    <glyph glyph-name="acute" unicode="&#xb4;" horiz-adv-x="174" 
d="M103 680q-31 0 -39 -23l-40 -113l70 48q28 19 37 29.5t9 23.5q0 35 -37 35z" />
    <glyph glyph-name="paragraph" unicode="&#xb6;" horiz-adv-x="442" 
d="M373 -232q14 0 24.5 10.5t10.5 24.5v846q0 14 -10.5 24.5t-24.5 10.5t-24.5 -10.5t-10.5 -24.5v-846q0 -14 10.5 -24.5t24.5 -10.5zM221 -230q14 0 24.5 10.5t10.5 24.5v825q0 26 -1.5 33t-9.5 14q-13 11 -46 11q-71 0 -120.5 -44t-49.5 -112q0 -63 39.5 -105t100.5 -49
l17 -2v-571q0 -14 10.5 -24.5t24.5 -10.5z" />
    <glyph glyph-name="periodcentered" unicode="&#xb7;" horiz-adv-x="159" 
d="M79 190q20 0 33 13.5t13 32.5q0 18 -12.5 30t-32.5 12q-19 0 -32.5 -12.5t-13.5 -30.5q0 -19 13 -32t32 -13z" />
    <glyph glyph-name="onequarter" unicode="&#xbc;" horiz-adv-x="707" 
d="M578 3q14 0 23.5 9.5t9.5 22.5v49q0 21 3 23q1 2 18 2h17q12 0 20.5 8t8.5 20t-8.5 20.5t-20.5 8.5h-13q-20 0 -22 2q-3 3 -3 13v19q0 14 -9.5 23.5t-23.5 9.5q-13 0 -22.5 -9.5t-9.5 -23.5v-20q0 -9 -2 -11q-3 -3 -11 -3h-52q-10 0 -10 3l26 32l117 142q11 14 11 26
q0 13 -8.5 21t-21.5 8t-26 -13q-8 -8 -57 -66q-103 -125 -119 -149q-6 -10 -6 -21q0 -27 28 -36q12 -4 37 -4h80q10 0 12 -2t2 -40v-32q0 -13 9 -22.5t23 -9.5zM122 240q14 0 23.5 9.5t9.5 22.5v307q0 24 -3 31q-6 13 -21 13q-11 0 -62 -64q-40 -51 -40 -59q0 -9 6 -16.5
t15 -7.5q8 0 23 6q13 6 14 6q3 0 3 -14v-202q0 -14 9 -23t23 -9zM101 1q15 0 25.5 7.5t29.5 32.5l352 448q50 62 59 76t9 25q0 16 -9 25t-24 9q-17 0 -37 -25l-399 -507q-24 -31 -29.5 -41t-5.5 -19q0 -31 29 -31z" />
    <glyph glyph-name="onehalf" unicode="&#xbd;" horiz-adv-x="718" 
d="M689 33q0 12 -8.5 20.5t-20.5 8.5h-102q-21 0 -21 2q0 1 8 12l98 128q24 31 24 67q0 53 -46 88q-30 22 -72 22q-20 0 -43 -11.5t-34 -26.5q-15 -22 -15 -34t8.5 -19.5t21.5 -7.5q4 0 7 0.5t4.5 1t4.5 3t4 3.5t4.5 5t4.5 5q19 22 36 22q19 0 33.5 -14.5t14.5 -33.5
q0 -24 -33 -64l-107 -134q-20 -24 -20 -42q0 -23 20 -28q6 -2 33 -2h167q12 0 20.5 8.5t8.5 20.5zM101 3q15 0 25.5 7.5t29.5 32.5l352 448q50 62 59 76t9 25q0 16 -9 25t-24 9q-17 0 -37 -25l-399 -507q-24 -31 -29.5 -41t-5.5 -19q0 -31 29 -31zM122 242q14 0 23.5 9.5
t9.5 22.5v307q0 24 -3 31q-6 13 -21 13q-11 0 -62 -64q-40 -51 -40 -59q0 -9 6 -16.5t15 -7.5q8 0 23 6q13 6 14 6q3 0 3 -14v-202q0 -14 9 -23t23 -9z" />
    <glyph glyph-name="threequarters" unicode="&#xbe;" horiz-adv-x="758" 
d="M146 269q50 0 93.5 33.5t43.5 80.5q0 35 -26 68q-20 23 -56 40q-12 6 -12 7t9 10q32 32 43 52q8 14 8 24q0 25 -25 33q-9 3 -32 3h-123q-13 0 -21.5 -8.5t-8.5 -21.5t8.5 -21.5t21.5 -8.5h81q8 0 8 -2q0 -5 -19 -27q-32 -38 -32 -52q0 -15 8 -20t34 -12q66 -17 66 -61
q0 -22 -22 -39.5t-45 -17.5q-30 0 -56 22q-20 16 -33 16q-11 0 -20.5 -9.5t-9.5 -21.5q0 -25 39 -46t78 -21zM629 7q14 0 23.5 9.5t9.5 22.5v49q0 21 3 23q1 2 18 2h17q12 0 20.5 8t8.5 20t-8.5 20.5t-20.5 8.5h-13q-20 0 -22 2q-3 3 -3 13v19q0 14 -10 23.5t-23 9.5
t-22.5 -9.5t-9.5 -23.5v-20q0 -9 -2 -11q-3 -3 -11 -3h-52q-10 0 -10 3l26 32l117 142q11 14 11 26q0 13 -8.5 21t-21.5 8t-26 -13q-8 -8 -57 -66q-103 -125 -119 -149q-6 -10 -6 -21q0 -27 28 -36q12 -4 37 -4h80q10 0 12 -2t2 -40v-32q0 -13 9.5 -22.5t22.5 -9.5zM158 4
q15 0 25.5 7.5t29.5 32.5l352 448q50 62 59 76t9 25q0 16 -9 25t-24 9q-17 0 -37 -25l-399 -507q-24 -31 -29.5 -41t-5.5 -19q0 -31 29 -31z" />
    <glyph glyph-name="questiondown" unicode="&#xbf;" horiz-adv-x="378" 
d="M233 222q-15 0 -26 -11t-11 -26v-9q0 -39 -3 -48q-7 -17 -41 -23q-35 -5 -72 -42q-51 -51 -51 -130q0 -48 30 -91q23 -32 57 -52t71 -20q82 0 137 55q25 26 25 46q0 11 -6 18q-11 14 -32 14q-16 0 -32 -17q-25 -26 -41.5 -36t-41.5 -10q-42 0 -67.5 29t-25.5 71
q0 48 26.5 75.5t80.5 41.5q35 9 48 26q8 11 10 24t2 58v20q0 15 -11 26t-26 11zM234 394q-21 0 -34 -13.5t-13 -34.5q0 -19 13.5 -30.5t31.5 -11.5q20 0 33.5 13.5t13.5 31.5t-13.5 31.5t-31.5 13.5z" />
    <glyph glyph-name="Agrave" unicode="&#xc0;" horiz-adv-x="511" 
d="M71 -3q15 0 26 11t11 26v164q0 14 13 14h197q15 0 17.5 -3.5t2.5 -19.5v-152q0 -15 11 -26t26 -11t26 11t11 26v152q0 16 4 20q6 3 22 3h12q14 0 23 9t9 23t-9 23t-23 9h-12q-22 0 -23 2q-3 3 -3 31v28q0 75 -7 126q-9 73 -56 130q-42 54 -121 86q-41 17 -66 17
q-18 0 -29.5 -8.5t-11.5 -23.5q0 -14 8.5 -22t33.5 -18q57 -22 57 -34q0 -6 -44 -57q-61 -72 -101.5 -156.5t-40.5 -165.5v-177q0 -15 11 -26t26 -11zM335 279q-3 -3 -25 -3h-186q-6 0 -6 7q0 10 11 43q22 66 103 164q49 58 52 59q6 0 17 -14t18 -30q10 -23 13 -45.5
t5 -87.5q1 -26 1 -61q0 -27 -3 -32zM202 900q-37 0 -37 -35q0 -13 9 -23.5t37 -29.5l70 -48l-40 113q-8 23 -39 23z" />
    <glyph glyph-name="Aacute" unicode="&#xc1;" horiz-adv-x="511" 
d="M71 -3q15 0 26 11t11 26v164q0 14 13 14h197q15 0 17.5 -3.5t2.5 -19.5v-152q0 -15 11 -26t26 -11t26 11t11 26v152q0 16 4 20q6 3 22 3h12q14 0 23 9t9 23t-9 23t-23 9h-12q-22 0 -23 2q-3 3 -3 31v28q0 75 -7 126q-9 73 -56 130q-42 54 -121 86q-41 17 -66 17
q-18 0 -29.5 -8.5t-11.5 -23.5q0 -14 8.5 -22t33.5 -18q57 -22 57 -34q0 -6 -44 -57q-61 -72 -101.5 -156.5t-40.5 -165.5v-177q0 -15 11 -26t26 -11zM335 279q-3 -3 -25 -3h-186q-6 0 -6 7q0 10 11 43q22 66 103 164q49 58 52 59q6 0 17 -14t18 -30q10 -23 13 -45.5
t5 -87.5q1 -26 1 -61q0 -27 -3 -32zM244 900q-31 0 -39 -23l-40 -113l70 48q28 19 37 29.5t9 23.5q0 35 -37 35z" />
    <glyph glyph-name="Acircumflex" unicode="&#xc2;" horiz-adv-x="511" 
d="M71 -3q15 0 26 11t11 26v164q0 14 13 14h197q15 0 17.5 -3.5t2.5 -19.5v-152q0 -15 11 -26t26 -11t26 11t11 26v152q0 16 4 20q6 3 22 3h12q14 0 23 9t9 23t-9 23t-23 9h-12q-22 0 -23 2q-3 3 -3 31v28q0 75 -7 126q-9 73 -56 130q-42 54 -121 86q-41 17 -66 17
q-18 0 -29.5 -8.5t-11.5 -23.5q0 -14 8.5 -22t33.5 -18q57 -22 57 -34q0 -6 -44 -57q-61 -72 -101.5 -156.5t-40.5 -165.5v-177q0 -15 11 -26t26 -11zM335 279q-3 -3 -25 -3h-186q-6 0 -6 7q0 10 11 43q22 66 103 164q49 58 52 59q6 0 17 -14t18 -30q10 -23 13 -45.5
t5 -87.5q1 -26 1 -61q0 -27 -3 -32zM247 850q10 0 30 -19q40 -38 94 -74q20 -13 29 -13q19 0 19 16q0 12 -33 40q-32 28 -71 68l-13 13l-12.5 12.5l-10 10t-9.5 9t-8 6.5t-8 4t-7 1t-7 -1t-8 -4t-8 -6.5t-9.5 -9l-10 -10l-12.5 -12.5l-13 -13q-39 -40 -71 -68
q-33 -28 -33 -40q0 -16 19 -16q9 0 29 13q54 36 94 74q20 19 30 19z" />
    <glyph glyph-name="Atilde" unicode="&#xc3;" horiz-adv-x="511" 
d="M71 -3q15 0 26 11t11 26v164q0 14 13 14h197q15 0 17.5 -3.5t2.5 -19.5v-152q0 -15 11 -26t26 -11t26 11t11 26v152q0 16 4 20q6 3 22 3h12q14 0 23 9t9 23t-9 23t-23 9h-12q-22 0 -23 2q-3 3 -3 31v28q0 75 -7 126q-9 73 -56 130q-42 54 -121 86q-41 17 -66 17
q-18 0 -29.5 -8.5t-11.5 -23.5q0 -14 8.5 -22t33.5 -18q57 -22 57 -34q0 -6 -44 -57q-61 -72 -101.5 -156.5t-40.5 -165.5v-177q0 -15 11 -26t26 -11zM335 279q-3 -3 -25 -3h-186q-6 0 -6 7q0 10 11 43q22 66 103 164q49 58 52 59q6 0 17 -14t18 -30q10 -23 13 -45.5
t5 -87.5q1 -26 1 -61q0 -27 -3 -32zM88 757q11 0 35 31q25 29 50 29q9 0 20 -4.5t18.5 -9t19.5 -13t16 -11.5q41 -27 82 -27q33 0 66 30.5t33 57.5q0 26 -22 26q-11 0 -35 -31q-25 -29 -50 -29q-9 0 -20 4.5t-18.5 9t-19.5 13t-16 11.5q-41 27 -82 27q-33 0 -66 -30.5
t-33 -57.5q0 -26 22 -26z" />
    <glyph glyph-name="Adieresis" unicode="&#xc4;" horiz-adv-x="511" 
d="M71 -3q15 0 26 11t11 26v164q0 14 13 14h197q15 0 17.5 -3.5t2.5 -19.5v-152q0 -15 11 -26t26 -11t26 11t11 26v152q0 16 4 20q6 3 22 3h12q14 0 23 9t9 23t-9 23t-23 9h-12q-22 0 -23 2q-3 3 -3 31v28q0 75 -7 126q-9 73 -56 130q-42 54 -121 86q-41 17 -66 17
q-18 0 -29.5 -8.5t-11.5 -23.5q0 -14 8.5 -22t33.5 -18q57 -22 57 -34q0 -6 -44 -57q-61 -72 -101.5 -156.5t-40.5 -165.5v-177q0 -15 11 -26t26 -11zM335 279q-3 -3 -25 -3h-186q-6 0 -6 7q0 10 11 43q22 66 103 164q49 58 52 59q6 0 17 -14t18 -30q10 -23 13 -45.5
t5 -87.5q1 -26 1 -61q0 -27 -3 -32zM333 764q20 0 35 14t15 34q0 19 -14 30.5t-32 11.5q-19 0 -33 -13t-14 -31q0 -17 12.5 -31.5t30.5 -14.5zM155 766q20 0 34 13.5t14 32.5q0 18 -12.5 30t-31.5 12q-20 0 -34 -12.5t-14 -30.5t13.5 -31.5t30.5 -13.5z" />
    <glyph glyph-name="Aring" unicode="&#xc5;" horiz-adv-x="511" 
d="M254 720q45 0 76 32.5t31 77.5q0 47 -31 78t-79 31q-45 0 -77.5 -32.5t-32.5 -76.5q0 -48 33 -79t80 -31zM252 770q-25 0 -42.5 17t-17.5 43q0 25 18 42t43 17q24 0 40.5 -17t16.5 -41q0 -26 -16 -43.5t-42 -17.5zM71 -3q15 0 26 11t11 26v164q0 14 13 14h197
q15 0 17.5 -3.5t2.5 -19.5v-152q0 -15 11 -26t26 -11t26 11t11 26v152q0 16 4 20q6 3 22 3h12q14 0 23 9t9 23t-9 23t-23 9h-12q-22 0 -23 2q-3 3 -3 31v28q0 75 -7 126q-9 73 -56 130q-42 54 -121 86q-41 17 -66 17q-18 0 -29.5 -8.5t-11.5 -23.5q0 -14 8.5 -22t33.5 -18
q57 -22 57 -34q0 -6 -44 -57q-61 -72 -101.5 -156.5t-40.5 -165.5v-177q0 -15 11 -26t26 -11zM335 279q-3 -3 -25 -3h-186q-6 0 -6 7q0 10 11 43q22 66 103 164q49 58 52 59q6 0 17 -14t18 -30q10 -23 13 -45.5t5 -87.5q1 -26 1 -61q0 -27 -3 -32z" />
    <glyph glyph-name="AE" unicode="&#xc6;" horiz-adv-x="661" 
d="M70 1q15 0 25.5 10.5t10.5 25.5v160q0 25 4 29q6 4 27 4h166q22 0 26 -4q6 -6 6 -26v-133q0 -29 2.5 -38.5t10.5 -17.5q11 -11 58 -11h207q14 0 24 10t10 24t-10 24t-24 10h-181q-23 0 -26 3t-3 22v293q0 20 3 21q2 1 14 1h133q14 0 24 10t10 24t-10 24t-24 10h-132
q-17 0 -18 2q-1 1 -3 13q-5 32 -12 58q-11 35 -26 58q-2 2 -3.5 4t-2 3t-0.5 2t21 1h231q15 0 25.5 10t10.5 25t-10.5 25.5t-25.5 10.5h-176q-73 0 -103 -2q-40 -3 -58.5 -9.5t-42.5 -27.5q-74 -66 -140 -202q-54 -111 -54 -234v-176q0 -15 10.5 -25.5t25.5 -10.5zM304 296
h-161q-19 0 -23 1t-4 6q0 7 4 22q16 64 50 125q31 54 68 100q33 41 45 41q6 0 15 -14q17 -25 24 -45q13 -38 13 -133v-67q0 -27 -5 -32q-4 -4 -26 -4z" />
    <glyph glyph-name="Ccedilla" unicode="&#xc7;" horiz-adv-x="511" 
d="M294 -121q34 0 43 4q14 7 22 26q5 11 5 31q0 13 -4 35l-2 8t-2 6.5t-1 3.5q0 5 7 5h81q13 0 23 10t10 23t-10 23t-23 10h-45q-141 0 -217 82q-77 81 -77 201q0 94 48 166q48 75 121 99q48 15 83 15q23 0 34 -4t11 -18q0 -9 -17 -31q-24 -27 -24 -43q0 -12 7.5 -20.5
t18.5 -8.5q16 0 28 11.5t37 46.5q26 35 26 55q0 35 -41 55.5t-83 20.5q-71 0 -134 -31t-109 -85q-81 -95 -81 -221q0 -91 34 -163q37 -81 120 -138q39 -27 83 -41q23 -7 25 -9q18 -23 18 -51q0 -18 -21 -18q-2 0 -8 0.5t-12 0.5q-22 0 -28 -3q-17 -8 -17 -23q0 -24 29 -29
q5 -1 42 -1z" />
    <glyph glyph-name="Egrave" unicode="&#xc8;" horiz-adv-x="396" 
d="M88 0h248q13 0 22 9t9 22t-9 22t-22 9h-162q-42 0 -42 6q0 5 12 22q22 30 40 74q10 28 9 84v52q-1 92 4 97q4 4 19 5h73q13 0 22.5 9t9.5 23t-9.5 23t-22.5 9h-77q-14 0 -18 4q-2 2 -3 6.5t-1.5 10t-1.5 8.5q-18 79 -54 120q-6 7 -6 12q0 2 30 2h172q14 0 23 9.5t9 22.5
t-9 22.5t-23 9.5h-219q-50 0 -62 -7q-21 -12 -21 -32q0 -3 0.5 -5.5t0.5 -4.5t1 -4.5t2 -4.5t3 -5.5t3.5 -5.5t5 -6.5t5.5 -7.5t7 -9.5t8 -10.5q35 -45 45 -83q8 -28 10 -174l1 -106q0 -32 -10 -60q-8 -23 -46 -71l-10 -12.5t-9 -10.5t-6.5 -8.5t-5.5 -9t-3 -8.5t-1 -10
q0 -22 21 -31q15 -6 38 -6zM183 900q-37 0 -37 -35q0 -13 9 -23.5t37 -29.5l70 -48l-40 113q-8 23 -39 23z" />
    <glyph glyph-name="Eacute" unicode="&#xc9;" horiz-adv-x="396" 
d="M88 0h248q13 0 22 9t9 22t-9 22t-22 9h-162q-42 0 -42 6q0 5 12 22q22 30 40 74q10 28 9 84v52q-1 92 4 97q4 4 19 5h73q13 0 22.5 9t9.5 23t-9.5 23t-22.5 9h-77q-14 0 -18 4q-2 2 -3 6.5t-1.5 10t-1.5 8.5q-18 79 -54 120q-6 7 -6 12q0 2 30 2h172q14 0 23 9.5t9 22.5
t-9 22.5t-23 9.5h-219q-50 0 -62 -7q-21 -12 -21 -32q0 -3 0.5 -5.5t0.5 -4.5t1 -4.5t2 -4.5t3 -5.5t3.5 -5.5t5 -6.5t5.5 -7.5t7 -9.5t8 -10.5q35 -45 45 -83q8 -28 10 -174l1 -106q0 -32 -10 -60q-8 -23 -46 -71l-10 -12.5t-9 -10.5t-6.5 -8.5t-5.5 -9t-3 -8.5t-1 -10
q0 -22 21 -31q15 -6 38 -6zM225 900q-31 0 -39 -23l-40 -113l70 48q28 19 37 29.5t9 23.5q0 35 -37 35z" />
    <glyph glyph-name="Ecircumflex" unicode="&#xca;" horiz-adv-x="396" 
d="M88 0h248q13 0 22 9t9 22t-9 22t-22 9h-162q-42 0 -42 6q0 5 12 22q22 30 40 74q10 28 9 84v52q-1 92 4 97q4 4 19 5h73q13 0 22.5 9t9.5 23t-9.5 23t-22.5 9h-77q-14 0 -18 4q-2 2 -3 6.5t-1.5 10t-1.5 8.5q-18 79 -54 120q-6 7 -6 12q0 2 30 2h172q14 0 23 9.5t9 22.5
t-9 22.5t-23 9.5h-219q-50 0 -62 -7q-21 -12 -21 -32q0 -3 0.5 -5.5t0.5 -4.5t1 -4.5t2 -4.5t3 -5.5t3.5 -5.5t5 -6.5t5.5 -7.5t7 -9.5t8 -10.5q35 -45 45 -83q8 -28 10 -174l1 -106q0 -32 -10 -60q-8 -23 -46 -71l-10 -12.5t-9 -10.5t-6.5 -8.5t-5.5 -9t-3 -8.5t-1 -10
q0 -22 21 -31q15 -6 38 -6zM204 850q10 0 30 -19q40 -38 94 -74q20 -13 29 -13q19 0 19 16q0 12 -33 40q-32 28 -71 68l-13 13l-12.5 12.5l-10 10t-9.5 9t-8 6.5t-8 4t-7 1t-7 -1t-8 -4t-8 -6.5t-9.5 -9l-10 -10l-12.5 -12.5l-13 -13q-39 -40 -71 -68q-33 -28 -33 -40
q0 -16 19 -16q9 0 29 13q54 36 94 74q20 19 30 19z" />
    <glyph glyph-name="Edieresis" unicode="&#xcb;" horiz-adv-x="396" 
d="M88 0h248q13 0 22 9t9 22t-9 22t-22 9h-162q-42 0 -42 6q0 5 12 22q22 30 40 74q10 28 9 84v52q-1 92 4 97q4 4 19 5h73q13 0 22.5 9t9.5 23t-9.5 23t-22.5 9h-77q-14 0 -18 4q-2 2 -3 6.5t-1.5 10t-1.5 8.5q-18 79 -54 120q-6 7 -6 12q0 2 30 2h172q14 0 23 9.5t9 22.5
t-9 22.5t-23 9.5h-219q-50 0 -62 -7q-21 -12 -21 -32q0 -3 0.5 -5.5t0.5 -4.5t1 -4.5t2 -4.5t3 -5.5t3.5 -5.5t5 -6.5t5.5 -7.5t7 -9.5t8 -10.5q35 -45 45 -83q8 -28 10 -174l1 -106q0 -32 -10 -60q-8 -23 -46 -71l-10 -12.5t-9 -10.5t-6.5 -8.5t-5.5 -9t-3 -8.5t-1 -10
q0 -22 21 -31q15 -6 38 -6zM290 764q20 0 35 14t15 34q0 19 -14 30.5t-32 11.5q-19 0 -33 -13t-14 -31q0 -17 12.5 -31.5t30.5 -14.5zM112 766q20 0 34 13.5t14 32.5q0 18 -12.5 30t-31.5 12q-20 0 -34 -12.5t-14 -30.5t13.5 -31.5t30.5 -13.5z" />
    <glyph glyph-name="Igrave" unicode="&#xcc;" horiz-adv-x="146" 
d="M73 -5q17 0 28 11.5t11 27.5v624q0 16 -11 27.5t-28 11.5t-28 -11.5t-11 -27.5v-624q0 -16 11 -27.5t28 -11.5zM52 900q-37 0 -37 -35q0 -13 9 -23.5t37 -29.5l70 -48l-40 113q-8 23 -39 23z" />
    <glyph glyph-name="Iacute" unicode="&#xcd;" horiz-adv-x="146" 
d="M73 -5q17 0 28 11.5t11 27.5v624q0 16 -11 27.5t-28 11.5t-28 -11.5t-11 -27.5v-624q0 -16 11 -27.5t28 -11.5zM94 900q-31 0 -39 -23l-40 -113l70 48q28 19 37 29.5t9 23.5q0 35 -37 35z" />
    <glyph glyph-name="Icircumflex" unicode="&#xce;" horiz-adv-x="146" 
d="M73 -5q17 0 28 11.5t11 27.5v624q0 16 -11 27.5t-28 11.5t-28 -11.5t-11 -27.5v-624q0 -16 11 -27.5t28 -11.5zM73 850q10 0 30 -19q40 -38 94 -74q20 -13 29 -13q19 0 19 16q0 12 -33 40q-32 28 -71 68l-13 13l-12.5 12.5l-10 10t-9.5 9t-8 6.5t-8 4t-7 1t-7 -1t-8 -4
t-8 -6.5t-9.5 -9l-10 -10l-12.5 -12.5l-13 -13q-39 -40 -71 -68q-33 -28 -33 -40q0 -16 19 -16q9 0 29 13q54 36 94 74q20 19 30 19z" />
    <glyph glyph-name="Idieresis" unicode="&#xcf;" horiz-adv-x="146" 
d="M73 -5q17 0 28 11.5t11 27.5v624q0 16 -11 27.5t-28 11.5t-28 -11.5t-11 -27.5v-624q0 -16 11 -27.5t28 -11.5zM159 764q20 0 35 14t15 34q0 19 -14 30.5t-32 11.5q-19 0 -33 -13t-14 -31q0 -17 12.5 -31.5t30.5 -14.5zM-19 766q20 0 34 13.5t14 32.5q0 18 -12.5 30
t-31.5 12q-20 0 -34 -12.5t-14 -30.5t13.5 -31.5t30.5 -13.5z" />
    <glyph glyph-name="Eth" unicode="&#xd0;" horiz-adv-x="573" 
d="M73 -2h92q183 0 287 108q92 97 92 235q-2 134 -81 225q-46 54 -113 88.5t-148 34.5h-143q-13 0 -22.5 -9.5t-9.5 -22.5t9.5 -22.5t22.5 -9.5h22q26 0 33.5 -2t7.5 -11l2 -111q0 -13 -6 -19t-31 -6h-18q-14 0 -24.5 -10.5t-10.5 -24.5t10.5 -24.5t24.5 -10.5h18
q24 0 30 -6q7 -7 7 -26l2 -78q0 -90 -13 -129q-11 -27 -53 -85q-24 -33 -24 -46q0 -16 10 -27t27 -11zM200 297l-2 87q0 10 6 16t32 6h19q14 0 24.5 10.5t10.5 24.5t-10.5 24.5t-24.5 10.5h-32q-11 0 -20 7q-5 5 -5 19l-2 105q0 12 4.5 14.5t17.5 2.5q28 0 64 -12t61 -29
q79 -52 112 -143q14 -42 16 -99q0 -113 -77 -195q-69 -70 -182 -80q-13 -1 -48 -1h-18q-14 0 -14 2q0 4 13 22q46 65 52 130q3 24 3 78z" />
    <glyph glyph-name="Ntilde" unicode="&#xd1;" horiz-adv-x="448" 
d="M71 -3q15 0 26 11t11 26v493q0 27 4 27q1 0 22 -24l156 -186q25 -30 32 -40t11 -26q7 -26 7 -76v-168q0 -15 11 -26t26 -11t26 11t11 26v624q0 15 -11 26t-26 11t-26 -11t-11 -26v-236q0 -25 -4 -25q-5 0 -23 22l-197 235q-3 3 -8.5 10t-7.5 9.5t-6 7t-6.5 6t-6 3.5
t-6.5 2.5t-7 0.5q-17 0 -27 -15q-7 -12 -7 -32v-612q0 -15 11 -26t26 -11zM65 757q11 0 35 31q25 29 50 29q9 0 20 -4.5t18.5 -9t19.5 -13t16 -11.5q41 -27 82 -27q33 0 66 30.5t33 57.5q0 26 -22 26q-11 0 -35 -31q-25 -29 -50 -29q-9 0 -20 4.5t-18.5 9t-19.5 13t-16 11.5
q-41 27 -82 27q-33 0 -66 -30.5t-33 -57.5q0 -26 22 -26z" />
    <glyph glyph-name="Ograve" unicode="&#xd2;" horiz-adv-x="754" 
d="M357 27q0 14 -11 25q-7 7 -24 12q-112 35 -165 113q-52 74 -52 166q0 91 51 168q37 57 96 86.5t129 29.5q56 0 112 -29t94 -76q62 -76 62 -182q0 -90 -60 -176q-53 -77 -144 -98q-15 -4 -24 -14q-8 -9 -8 -24q0 -30 33 -30q43 0 106 36q70 41 114 107q59 87 59 205
q0 153 -113 258q-98 93 -225 93q-83 0 -156 -31t-122 -91q-80 -98 -80 -229q0 -115 63 -204q51 -73 128 -112q64 -33 106 -33q13 0 22 9t9 21zM356 900q-37 0 -37 -35q0 -13 9 -23.5t37 -29.5l70 -48l-40 113q-8 23 -39 23z" />
    <glyph glyph-name="Oacute" unicode="&#xd3;" horiz-adv-x="754" 
d="M357 27q0 14 -11 25q-7 7 -24 12q-112 35 -165 113q-52 74 -52 166q0 91 51 168q37 57 96 86.5t129 29.5q56 0 112 -29t94 -76q62 -76 62 -182q0 -90 -60 -176q-53 -77 -144 -98q-15 -4 -24 -14q-8 -9 -8 -24q0 -30 33 -30q43 0 106 36q70 41 114 107q59 87 59 205
q0 153 -113 258q-98 93 -225 93q-83 0 -156 -31t-122 -91q-80 -98 -80 -229q0 -115 63 -204q51 -73 128 -112q64 -33 106 -33q13 0 22 9t9 21zM398 900q-31 0 -39 -23l-40 -113l70 48q28 19 37 29.5t9 23.5q0 35 -37 35z" />
    <glyph glyph-name="Ocircumflex" unicode="&#xd4;" horiz-adv-x="754" 
d="M357 27q0 14 -11 25q-7 7 -24 12q-112 35 -165 113q-52 74 -52 166q0 91 51 168q37 57 96 86.5t129 29.5q56 0 112 -29t94 -76q62 -76 62 -182q0 -90 -60 -176q-53 -77 -144 -98q-15 -4 -24 -14q-8 -9 -8 -24q0 -30 33 -30q43 0 106 36q70 41 114 107q59 87 59 205
q0 153 -113 258q-98 93 -225 93q-83 0 -156 -31t-122 -91q-80 -98 -80 -229q0 -115 63 -204q51 -73 128 -112q64 -33 106 -33q13 0 22 9t9 21zM377 850q10 0 30 -19q40 -38 94 -74q20 -13 29 -13q19 0 19 16q0 12 -33 40q-32 28 -71 68l-13 13l-12.5 12.5l-10 10t-9.5 9
t-8 6.5t-8 4t-7 1t-7 -1t-8 -4t-8 -6.5t-9.5 -9l-10 -10l-12.5 -12.5l-13 -13q-39 -40 -71 -68q-33 -28 -33 -40q0 -16 19 -16q9 0 29 13q54 36 94 74q20 19 30 19z" />
    <glyph glyph-name="Otilde" unicode="&#xd5;" horiz-adv-x="754" 
d="M357 27q0 14 -11 25q-7 7 -24 12q-112 35 -165 113q-52 74 -52 166q0 91 51 168q37 57 96 86.5t129 29.5q56 0 112 -29t94 -76q62 -76 62 -182q0 -90 -60 -176q-53 -77 -144 -98q-15 -4 -24 -14q-8 -9 -8 -24q0 -30 33 -30q43 0 106 36q70 41 114 107q59 87 59 205
q0 153 -113 258q-98 93 -225 93q-83 0 -156 -31t-122 -91q-80 -98 -80 -229q0 -115 63 -204q51 -73 128 -112q64 -33 106 -33q13 0 22 9t9 21zM218 757q11 0 35 31q25 29 50 29q9 0 20 -4.5t18.5 -9t19.5 -13t16 -11.5q41 -27 82 -27q33 0 66 30.5t33 57.5q0 26 -22 26
q-11 0 -35 -31q-25 -29 -50 -29q-9 0 -20 4.5t-18.5 9t-19.5 13t-16 11.5q-41 27 -82 27q-33 0 -66 -30.5t-33 -57.5q0 -26 22 -26z" />
    <glyph glyph-name="Odieresis" unicode="&#xd6;" horiz-adv-x="754" 
d="M357 27q0 14 -11 25q-7 7 -24 12q-112 35 -165 113q-52 74 -52 166q0 91 51 168q37 57 96 86.5t129 29.5q56 0 112 -29t94 -76q62 -76 62 -182q0 -90 -60 -176q-53 -77 -144 -98q-15 -4 -24 -14q-8 -9 -8 -24q0 -30 33 -30q43 0 106 36q70 41 114 107q59 87 59 205
q0 153 -113 258q-98 93 -225 93q-83 0 -156 -31t-122 -91q-80 -98 -80 -229q0 -115 63 -204q51 -73 128 -112q64 -33 106 -33q13 0 22 9t9 21zM463 764q20 0 35 14t15 34q0 19 -14 30.5t-32 11.5q-19 0 -33 -13t-14 -31q0 -17 12.5 -31.5t30.5 -14.5zM285 766q20 0 34 13.5
t14 32.5q0 18 -12.5 30t-31.5 12q-20 0 -34 -12.5t-14 -30.5t13.5 -31.5t30.5 -13.5z" />
    <glyph glyph-name="multiply" unicode="&#xd7;" horiz-adv-x="418" 
d="M209 186l119 -118q9 -10 23 -10q13 0 23 10t10 23q0 11 -10 23l-118 119l118 119q10 10 10 23t-10 23t-23 10t-23 -10l-119 -118l-119 118q-12 10 -23 10q-13 0 -23 -10t-10 -23q0 -14 10 -23l118 -119l-118 -119q-10 -10 -10 -23t10 -23t23 -10t23 10z" />
    <glyph glyph-name="Oslash" unicode="&#xd8;" horiz-adv-x="748" 
d="M354 29q0 12 -6.5 22t-17.5 13q-29 6 -58 20q-40 18 -40 26t22 34l293 360q21 26 23 26q6 0 28 -35q46 -75 46 -157q0 -93 -60 -173q-58 -75 -129 -92q-27 -7 -37 -15t-10 -26q0 -31 36 -31q24 0 70 20q40 16 81 50t64 69q60 91 60 202q0 128 -86 230q-13 16 -13 18
t11 16q2 2 7.5 8.5t7.5 9.5t5.5 8.5t5 11t1.5 10.5q0 40 -39 40q-6 0 -11.5 -2t-9 -4t-9.5 -7.5t-8.5 -8.5t-9 -11t-8.5 -11q-7 -9 -10 -9l-28 13q-79 36 -144 36q-95 0 -170 -39q-96 -49 -146 -149q-36 -72 -36 -152q0 -137 82 -232q10 -12 10 -15q0 -1 -16 -22
q-3 -3 -7.5 -8t-6 -7t-4 -5.5t-3.5 -6.5t-1.5 -6.5t-0.5 -8.5q0 -16 9.5 -27t24.5 -11q21 0 41 25q21 26 25 26q2 0 12 -7q40 -29 105 -42q13 -3 22 -3q33 0 33 29zM151 187q-47 74 -47 160q0 59 27 118q33 70 99 116q60 40 149 40q45 0 74 -11q52 -20 52 -28q0 -1 -16 -22
l-268 -334q-8 -10 -17 -21t-14 -17.5t-10 -12.5t-7.5 -8.5t-3.5 -2.5q-3 0 -18 23z" />
    <glyph glyph-name="Ugrave" unicode="&#xd9;" 
d="M236 0q55 0 102.5 29.5t72.5 78.5q13 27 17.5 56.5t4.5 123.5v368q0 16 -11 27t-27 11t-27 -11t-11 -27v-423q0 -49 -5 -69q-10 -41 -42 -68.5t-74 -27.5q-40 0 -74 27.5t-46 66.5q-6 18 -6 67v427q0 16 -11 27t-27 11t-27 -11t-11 -27v-363q0 -86 4 -121.5t18 -61.5
q27 -50 76 -80t104 -30zM212 900q-37 0 -37 -35q0 -13 9 -23.5t37 -29.5l70 -48l-40 113q-8 23 -39 23z" />
    <glyph glyph-name="Uacute" unicode="&#xda;" 
d="M236 0q55 0 102.5 29.5t72.5 78.5q13 27 17.5 56.5t4.5 123.5v368q0 16 -11 27t-27 11t-27 -11t-11 -27v-423q0 -49 -5 -69q-10 -41 -42 -68.5t-74 -27.5q-40 0 -74 27.5t-46 66.5q-6 18 -6 67v427q0 16 -11 27t-27 11t-27 -11t-11 -27v-363q0 -86 4 -121.5t18 -61.5
q27 -50 76 -80t104 -30zM254 900q-31 0 -39 -23l-40 -113l70 48q28 19 37 29.5t9 23.5q0 35 -37 35z" />
    <glyph glyph-name="Ucircumflex" unicode="&#xdb;" 
d="M236 0q55 0 102.5 29.5t72.5 78.5q13 27 17.5 56.5t4.5 123.5v368q0 16 -11 27t-27 11t-27 -11t-11 -27v-423q0 -49 -5 -69q-10 -41 -42 -68.5t-74 -27.5q-40 0 -74 27.5t-46 66.5q-6 18 -6 67v427q0 16 -11 27t-27 11t-27 -11t-11 -27v-363q0 -86 4 -121.5t18 -61.5
q27 -50 76 -80t104 -30zM233 850q10 0 30 -19q40 -38 94 -74q20 -13 29 -13q19 0 19 16q0 12 -33 40q-32 28 -71 68l-13 13l-12.5 12.5l-10 10t-9.5 9t-8 6.5t-8 4t-7 1t-7 -1t-8 -4t-8 -6.5t-9.5 -9l-10 -10l-12.5 -12.5l-13 -13q-39 -40 -71 -68q-33 -28 -33 -40
q0 -16 19 -16q9 0 29 13q54 36 94 74q20 19 30 19z" />
    <glyph glyph-name="Udieresis" unicode="&#xdc;" 
d="M236 0q55 0 102.5 29.5t72.5 78.5q13 27 17.5 56.5t4.5 123.5v368q0 16 -11 27t-27 11t-27 -11t-11 -27v-423q0 -49 -5 -69q-10 -41 -42 -68.5t-74 -27.5q-40 0 -74 27.5t-46 66.5q-6 18 -6 67v427q0 16 -11 27t-27 11t-27 -11t-11 -27v-363q0 -86 4 -121.5t18 -61.5
q27 -50 76 -80t104 -30zM319 764q20 0 35 14t15 34q0 19 -14 30.5t-32 11.5q-19 0 -33 -13t-14 -31q0 -17 12.5 -31.5t30.5 -14.5zM141 766q20 0 34 13.5t14 32.5q0 18 -12.5 30t-31.5 12q-20 0 -34 -12.5t-14 -30.5t13.5 -31.5t30.5 -13.5z" />
    <glyph glyph-name="Yacute" unicode="&#xdd;" 
d="M232 -4q16 0 27 11t11 27v135q0 69 12 103q11 28 40 79q3 5 30 49.5t39 69.5q17 33 32 85t15 85q0 50 -34 50q-22 0 -30.5 -14t-15.5 -55q-19 -109 -73 -193q-1 -2 -7 -12t-12.5 -20.5t-13.5 -21t-12.5 -17.5t-8.5 -7q-4 0 -11 10t-35 60q-39 69 -54.5 109.5t-27.5 106.5
q-6 33 -13.5 43t-25.5 10q-35 0 -35 -41q0 -34 15 -90t37 -97q4 -8 15.5 -29.5t24 -44.5t23.5 -43q25 -43 35 -72q15 -47 15 -105v-133q0 -16 11 -27t27 -11zM254 900q-31 0 -39 -23l-40 -113l70 48q28 19 37 29.5t9 23.5q0 35 -37 35z" />
    <glyph glyph-name="Thorn" unicode="&#xde;" horiz-adv-x="473" 
d="M70 0q15 0 26 10.5t11 25.5v46q0 19 0.5 22.5t4.5 3.5q3 0 19 -13q47 -40 106 -40q73 0 135 68q49 55 66 147q6 34 6 73q0 56 -14 107q-35 127 -133 172q-31 14 -73 14q-52 0 -96 -34q-12 -10 -16 -10t-4.5 4.5t-0.5 30.5v32q0 15 -11 26t-26 11t-25.5 -11t-10.5 -26
v-623q0 -15 10.5 -25.5t25.5 -10.5zM231 123q-45 0 -77.5 35t-40.5 88q-6 44 -6 99q0 43 1 64q2 47 9 70.5t24 44.5q35 43 83 43q56 0 95 -54q49 -70 49 -179q0 -60 -18 -107q-40 -104 -119 -104z" />
    <glyph glyph-name="germandbls" unicode="&#xdf;" horiz-adv-x="485" 
d="M72 -230q16 0 27 11t11 27v762q0 30 12.5 42.5t42.5 12.5h140q10 0 10 -9q0 -4 -22 -35q-9 -13 -30.5 -40.5t-36.5 -49t-26 -41.5q-6 -10 -6 -20q0 -28 46 -33q63 -7 95 -38q41 -38 41 -102q0 -36 -18 -70.5t-60 -92.5q-35 -53 -36 -61q0 -16 9.5 -25.5t23.5 -9.5
q19 0 43 31q65 85 91.5 134t26.5 103q0 82 -48 134q-37 38 -92 56q-26 8 -26 9q0 2 14 18q60 68 78 92q12 18 12 46t-24 49t-59 21h-194q-34 0 -58 -21q-13 -12 -19 -28t-6 -52v-782q0 -16 11 -27t27 -11z" />
    <glyph glyph-name="agrave" unicode="&#xe0;" horiz-adv-x="483" 
d="M142 0h278q14 0 24 9.5t10 23.5t-10 24t-24 10h-9q-24 0 -24 13v75q-1 77 -3.5 102t-12.5 52q-25 73 -96 121q-47 31 -93 42q-23 5 -33 5q-15 0 -26.5 -10t-11.5 -24q0 -25 36 -34q9 -2 33 -11q27 -11 27 -16q0 -8 -27 -41q-19 -24 -59 -76q-47 -63 -75 -117
q-17 -32 -17 -60q0 -62 58 -82q16 -6 55 -6zM297 68q-5 -1 -76 -1q-74 0 -81 1q-28 3 -28 29q0 19 33 72q21 33 68.5 97.5t54.5 64.5q9 0 21 -28q12 -27 16 -54t4 -98q0 -59 -1.5 -70t-10.5 -13zM187 680q-37 0 -37 -35q0 -13 9 -23.5t37 -29.5l70 -48l-40 113q-8 23 -39 23
z" />
    <glyph glyph-name="aacute" unicode="&#xe1;" horiz-adv-x="483" 
d="M142 0h278q14 0 24 9.5t10 23.5t-10 24t-24 10h-9q-24 0 -24 13v75q-1 77 -3.5 102t-12.5 52q-25 73 -96 121q-47 31 -93 42q-23 5 -33 5q-15 0 -26.5 -10t-11.5 -24q0 -25 36 -34q9 -2 33 -11q27 -11 27 -16q0 -8 -27 -41q-19 -24 -59 -76q-47 -63 -75 -117
q-17 -32 -17 -60q0 -62 58 -82q16 -6 55 -6zM297 68q-5 -1 -76 -1q-74 0 -81 1q-28 3 -28 29q0 19 33 72q21 33 68.5 97.5t54.5 64.5q9 0 21 -28q12 -27 16 -54t4 -98q0 -59 -1.5 -70t-10.5 -13zM229 680q-31 0 -39 -23l-40 -113l70 48q28 19 37 29.5t9 23.5q0 35 -37 35z
" />
    <glyph glyph-name="acircumflex" unicode="&#xe2;" horiz-adv-x="483" 
d="M142 0h278q14 0 24 9.5t10 23.5t-10 24t-24 10h-9q-24 0 -24 13v75q-1 77 -3.5 102t-12.5 52q-25 73 -96 121q-47 31 -93 42q-23 5 -33 5q-15 0 -26.5 -10t-11.5 -24q0 -25 36 -34q9 -2 33 -11q27 -11 27 -16q0 -8 -27 -41q-19 -24 -59 -76q-47 -63 -75 -117
q-17 -32 -17 -60q0 -62 58 -82q16 -6 55 -6zM297 68q-5 -1 -76 -1q-74 0 -81 1q-28 3 -28 29q0 19 33 72q21 33 68.5 97.5t54.5 64.5q9 0 21 -28q12 -27 16 -54t4 -98q0 -59 -1.5 -70t-10.5 -13zM208 630q10 0 30 -19q40 -38 94 -74q20 -13 29 -13q19 0 19 16q0 12 -33 40
q-32 28 -71 68l-13 13l-12.5 12.5l-10 10t-9.5 9t-8 6.5t-8 4t-7 1t-7 -1t-8 -4t-8 -6.5t-9.5 -9l-10 -10l-12.5 -12.5l-13 -13q-39 -40 -71 -68q-33 -28 -33 -40q0 -16 19 -16q9 0 29 13q54 36 94 74q20 19 30 19z" />
    <glyph glyph-name="atilde" unicode="&#xe3;" horiz-adv-x="483" 
d="M142 0h278q14 0 24 9.5t10 23.5t-10 24t-24 10h-9q-24 0 -24 13v75q-1 77 -3.5 102t-12.5 52q-25 73 -96 121q-47 31 -93 42q-23 5 -33 5q-15 0 -26.5 -10t-11.5 -24q0 -25 36 -34q9 -2 33 -11q27 -11 27 -16q0 -8 -27 -41q-19 -24 -59 -76q-47 -63 -75 -117
q-17 -32 -17 -60q0 -62 58 -82q16 -6 55 -6zM297 68q-5 -1 -76 -1q-74 0 -81 1q-28 3 -28 29q0 19 33 72q21 33 68.5 97.5t54.5 64.5q9 0 21 -28q12 -27 16 -54t4 -98q0 -59 -1.5 -70t-10.5 -13zM49 537q11 0 35 31q25 29 50 29q9 0 20 -4.5t18.5 -9t19.5 -13t16 -11.5
q41 -27 82 -27q33 0 66 30.5t33 57.5q0 26 -22 26q-11 0 -35 -31q-25 -29 -50 -29q-9 0 -20 4.5t-18.5 9t-19.5 13t-16 11.5q-41 27 -82 27q-33 0 -66 -30.5t-33 -57.5q0 -26 22 -26z" />
    <glyph glyph-name="adieresis" unicode="&#xe4;" horiz-adv-x="483" 
d="M142 0h278q14 0 24 9.5t10 23.5t-10 24t-24 10h-9q-24 0 -24 13v75q-1 77 -3.5 102t-12.5 52q-25 73 -96 121q-47 31 -93 42q-23 5 -33 5q-15 0 -26.5 -10t-11.5 -24q0 -25 36 -34q9 -2 33 -11q27 -11 27 -16q0 -8 -27 -41q-19 -24 -59 -76q-47 -63 -75 -117
q-17 -32 -17 -60q0 -62 58 -82q16 -6 55 -6zM297 68q-5 -1 -76 -1q-74 0 -81 1q-28 3 -28 29q0 19 33 72q21 33 68.5 97.5t54.5 64.5q9 0 21 -28q12 -27 16 -54t4 -98q0 -59 -1.5 -70t-10.5 -13zM294 544q20 0 35 14t15 34q0 19 -14 30.5t-32 11.5q-19 0 -33 -13t-14 -31
q0 -17 12.5 -31.5t30.5 -14.5zM116 546q20 0 34 13.5t14 32.5q0 18 -12.5 30t-31.5 12q-20 0 -34 -12.5t-14 -30.5t13.5 -31.5t30.5 -13.5z" />
    <glyph glyph-name="aring" unicode="&#xe5;" horiz-adv-x="483" 
d="M242 517q45 0 76 32.5t31 77.5q0 47 -31 78t-79 31q-45 0 -77.5 -32.5t-32.5 -76.5q0 -48 33 -79t80 -31zM240 567q-25 0 -42.5 17t-17.5 43q0 25 18 42t43 17q24 0 40.5 -17t16.5 -41q0 -26 -16 -43.5t-42 -17.5zM142 0h278q14 0 24 9.5t10 23.5t-10 24t-24 10h-9
q-24 0 -24 13v75q-1 77 -3.5 102t-12.5 52q-25 73 -96 121q-47 31 -93 42q-23 5 -33 5q-15 0 -26.5 -10t-11.5 -24q0 -25 36 -34q9 -2 33 -11q27 -11 27 -16q0 -8 -27 -41q-19 -24 -59 -76q-47 -63 -75 -117q-17 -32 -17 -60q0 -62 58 -82q16 -6 55 -6zM297 68q-5 -1 -76 -1
q-74 0 -81 1q-28 3 -28 29q0 19 33 72q21 33 68.5 97.5t54.5 64.5q9 0 21 -28q12 -27 16 -54t4 -98q0 -59 -1.5 -70t-10.5 -13z" />
    <glyph glyph-name="ae" unicode="&#xe6;" horiz-adv-x="718" 
d="M677 35q0 14 -10 24t-24 10h-150q-23 0 -23 4q0 2 14 22q12 17 41.5 56.5t68.5 91.5t56 75q34 47 34 70q0 18 -15 36t-34 28q-39 20 -90 20q-44 0 -82 -14q-75 -28 -113 -82q-8 -12 -9 -12t-13 14q-19 23 -51.5 44.5t-63.5 32.5q-47 15 -68 15q-16 0 -27 -9.5t-11 -24.5
q0 -14 12 -22t51 -19q37 -10 37 -22q0 -7 -7 -15q-52 -66 -96 -121q-75 -94 -75 -151q0 -46 36 -69q23 -16 65 -16h513q14 0 24 10t10 24zM307 73q-4 -4 -22 -4h-127q-20 0 -24 2q-23 8 -23 32q0 14 20 46q29 47 101 133q5 6 11 13t9.5 11.5t7.5 9t6.5 6.5t4.5 2t5.5 -3.5
t8.5 -11.5t9 -17q10 -23 14 -49t4 -91q0 -74 -5 -79zM516 260l-96 -131q-5 -7 -13 -18q-12 -17 -16 -17q-2 0 -2 58q0 14 -1.5 46t-1.5 50q0 27 2.5 36.5t12.5 30.5q21 41 60 67t84 26q23 0 35 -4q22 -10 22 -19q0 -8 -55 -83q-19 -26 -31 -42z" />
    <glyph glyph-name="ccedilla" unicode="&#xe7;" horiz-adv-x="431" 
d="M224 -117q34 0 43 4q14 7 22 26q5 11 5 31q0 10 -5 38q-4 16 -4 17q0 4 6 4h69q14 0 24.5 10t10.5 24t-10.5 24.5t-24.5 10.5h-45q-80 0 -121 20q-87 44 -87 150q0 74 52 123q48 46 107 46q18 0 33 -6t15 -15q0 -6 -17 -30q-23 -31 -23 -45q0 -13 9 -21.5t23 -8.5
q19 0 52 43q39 51 39 69q0 35 -61 63q-40 18 -85 18q-105 0 -176 -94q-46 -60 -46 -140q0 -82 44 -141q37 -49 94 -77q12 -6 39 -14q12 -3 18 -12q15 -21 15 -44q0 -18 -21 -18q-2 0 -8 0.5t-12 0.5q-22 0 -28 -3q-17 -8 -17 -23q0 -24 29 -29q5 -1 42 -1z" />
    <glyph glyph-name="egrave" unicode="&#xe8;" horiz-adv-x="440" 
d="M406 32q0 14 -10 24t-24 10h-50q-72 0 -104 9q-15 4 -15 12l28 40q57 80 107 146q40 53 53.5 75.5t13.5 38.5q0 40 -57 68q-36 18 -84 18q-102 0 -171 -75q-64 -70 -64 -164q0 -96 60 -159q36 -38 73 -53t101 -22q8 -1 59 -1h50q14 0 24 9.5t10 23.5zM138 134
q-13 0 -28 52q-5 18 -5 45q0 67 44 117q51 58 119 58q54 0 54 -19q0 -11 -80 -118q-25 -33 -76 -107q-20 -28 -28 -28zM196 680q-37 0 -37 -35q0 -13 9 -23.5t37 -29.5l70 -48l-40 113q-8 23 -39 23z" />
    <glyph glyph-name="eacute" unicode="&#xe9;" horiz-adv-x="440" 
d="M406 32q0 14 -10 24t-24 10h-50q-72 0 -104 9q-15 4 -15 12l28 40q57 80 107 146q40 53 53.5 75.5t13.5 38.5q0 40 -57 68q-36 18 -84 18q-102 0 -171 -75q-64 -70 -64 -164q0 -96 60 -159q36 -38 73 -53t101 -22q8 -1 59 -1h50q14 0 24 9.5t10 23.5zM138 134
q-13 0 -28 52q-5 18 -5 45q0 67 44 117q51 58 119 58q54 0 54 -19q0 -11 -80 -118q-25 -33 -76 -107q-20 -28 -28 -28zM238 680q-31 0 -39 -23l-40 -113l70 48q28 19 37 29.5t9 23.5q0 35 -37 35z" />
    <glyph glyph-name="ecircumflex" unicode="&#xea;" horiz-adv-x="440" 
d="M406 32q0 14 -10 24t-24 10h-50q-72 0 -104 9q-15 4 -15 12l28 40q57 80 107 146q40 53 53.5 75.5t13.5 38.5q0 40 -57 68q-36 18 -84 18q-102 0 -171 -75q-64 -70 -64 -164q0 -96 60 -159q36 -38 73 -53t101 -22q8 -1 59 -1h50q14 0 24 9.5t10 23.5zM138 134
q-13 0 -28 52q-5 18 -5 45q0 67 44 117q51 58 119 58q54 0 54 -19q0 -11 -80 -118q-25 -33 -76 -107q-20 -28 -28 -28zM217 630q10 0 30 -19q40 -38 94 -74q20 -13 29 -13q19 0 19 16q0 12 -33 40q-32 28 -71 68l-13 13l-12.5 12.5l-10 10t-9.5 9t-8 6.5t-8 4t-7 1t-7 -1
t-8 -4t-8 -6.5t-9.5 -9l-10 -10l-12.5 -12.5l-13 -13q-39 -40 -71 -68q-33 -28 -33 -40q0 -16 19 -16q9 0 29 13q54 36 94 74q20 19 30 19z" />
    <glyph glyph-name="edieresis" unicode="&#xeb;" horiz-adv-x="440" 
d="M406 32q0 14 -10 24t-24 10h-50q-72 0 -104 9q-15 4 -15 12l28 40q57 80 107 146q40 53 53.5 75.5t13.5 38.5q0 40 -57 68q-36 18 -84 18q-102 0 -171 -75q-64 -70 -64 -164q0 -96 60 -159q36 -38 73 -53t101 -22q8 -1 59 -1h50q14 0 24 9.5t10 23.5zM138 134
q-13 0 -28 52q-5 18 -5 45q0 67 44 117q51 58 119 58q54 0 54 -19q0 -11 -80 -118q-25 -33 -76 -107q-20 -28 -28 -28zM303 544q20 0 35 14t15 34q0 19 -14 30.5t-32 11.5q-19 0 -33 -13t-14 -31q0 -17 12.5 -31.5t30.5 -14.5zM125 546q20 0 34 13.5t14 32.5q0 18 -12.5 30
t-31.5 12q-20 0 -34 -12.5t-14 -30.5t13.5 -31.5t30.5 -13.5z" />
    <glyph glyph-name="igrave" unicode="&#xec;" horiz-adv-x="177" 
d="M123 2q11 0 20.5 7.5t9.5 18.5q0 12 -17 38q-16 24 -19 36t-3 45l2 287q0 16 -12 28t-28 12t-28 -12t-12 -28l-2 -267q0 -49 2 -59q7 -43 42 -78q28 -28 45 -28zM53 680q-37 0 -37 -35q0 -13 9 -23.5t37 -29.5l70 -48l-40 113q-8 23 -39 23z" />
    <glyph glyph-name="iacute" unicode="&#xed;" horiz-adv-x="177" 
d="M123 2q11 0 20.5 7.5t9.5 18.5q0 12 -17 38q-16 24 -19 36t-3 45l2 287q0 16 -12 28t-28 12t-28 -12t-12 -28l-2 -267q0 -49 2 -59q7 -43 42 -78q28 -28 45 -28zM95 680q-31 0 -39 -23l-40 -113l70 48q28 19 37 29.5t9 23.5q0 35 -37 35z" />
    <glyph glyph-name="icircumflex" unicode="&#xee;" horiz-adv-x="177" 
d="M123 2q11 0 20.5 7.5t9.5 18.5q0 12 -17 38q-16 24 -19 36t-3 45l2 287q0 16 -12 28t-28 12t-28 -12t-12 -28l-2 -267q0 -49 2 -59q7 -43 42 -78q28 -28 45 -28zM74 630q10 0 30 -19q40 -38 94 -74q20 -13 29 -13q19 0 19 16q0 12 -33 40q-32 28 -71 68l-13 13
l-12.5 12.5l-10 10t-9.5 9t-8 6.5t-8 4t-7 1t-7 -1t-8 -4t-8 -6.5t-9.5 -9l-10 -10l-12.5 -12.5l-13 -13q-39 -40 -71 -68q-33 -28 -33 -40q0 -16 19 -16q9 0 29 13q54 36 94 74q20 19 30 19z" />
    <glyph glyph-name="idieresis" unicode="&#xef;" horiz-adv-x="177" 
d="M123 2q11 0 20.5 7.5t9.5 18.5q0 12 -17 38q-16 24 -19 36t-3 45l2 287q0 16 -12 28t-28 12t-28 -12t-12 -28l-2 -267q0 -49 2 -59q7 -43 42 -78q28 -28 45 -28zM160 544q20 0 35 14t15 34q0 19 -14 30.5t-32 11.5q-19 0 -33 -13t-14 -31q0 -17 12.5 -31.5t30.5 -14.5z
M-18 546q20 0 34 13.5t14 32.5q0 18 -12.5 30t-31.5 12q-20 0 -34 -12.5t-14 -30.5t13.5 -31.5t30.5 -13.5z" />
    <glyph glyph-name="eth" unicode="&#xf0;" horiz-adv-x="566" 
d="M243 0q82 0 139 57q2 2 3.5 4t2.5 3l2 2q1 0 9 -14q20 -33 41 -48q8 -6 16 -6q15 0 23.5 9t8.5 22q0 11 -20 44q-19 30 -22 58q-2 18 -2 57l2 300q0 26 5 31q7 7 28 7h25q14 0 23.5 9.5t9.5 22.5q1 13 -8.5 23t-23.5 10h-22q-25 0 -31 6q-5 4 -5 38v20q0 17 -11.5 28
t-27.5 11t-27.5 -11t-11.5 -28v-21q0 -33 -5 -37q-6 -6 -35 -6h-17q-13 0 -22.5 -9.5t-10.5 -23.5q0 -14 9.5 -23t22.5 -9h20q25 0 32 -7q5 -5 5 -25v-25q0 -36 -2 -36q-1 0 -15 9q-43 29 -104 29q-88 0 -149 -59q-69 -64 -69 -170q-2 -97 51 -160q69 -82 163 -82zM248 67
q-60 0 -104 56q-36 49 -36 122q0 45 20 83q40 79 119 79q34 0 63 -16t42 -44q15 -30 15 -60v-85q-1 -41 -10 -63q-26 -72 -109 -72z" />
    <glyph glyph-name="ntilde" unicode="&#xf1;" horiz-adv-x="451" 
d="M73 1q17 0 28 11.5t11 27.5v234q0 44 15 74q29 52 93 52q45 0 75 -31q37 -37 37 -88q0 -23 -7 -48q-8 -29 -21 -54t-53 -82q-34 -48 -34 -66q0 -25 33 -30q8 -1 97 -1h46q14 0 24 10t10 24t-10 24t-24 10h-32q-39 0 -40 2q-1 3 27 47q63 96 63 172q0 34 -15 70t-38 60
q-52 52 -130 52q-55 0 -108 -34q-10 -7 -11 -7l-1 2q0 2 -0.5 5t-0.5 5q-3 14 -12.5 23.5t-22.5 9.5q-32 0 -36 -36q-2 -16 -2 -35v-364q0 -16 11 -27.5t28 -11.5zM71 537q11 0 35 31q25 29 50 29q9 0 20 -4.5t18.5 -9t19.5 -13t16 -11.5q41 -27 82 -27q33 0 66 30.5
t33 57.5q0 26 -22 26q-11 0 -35 -31q-25 -29 -50 -29q-9 0 -20 4.5t-18.5 9t-19.5 13t-16 11.5q-41 27 -82 27q-33 0 -66 -30.5t-33 -57.5q0 -26 22 -26z" />
    <glyph glyph-name="ograve" unicode="&#xf2;" horiz-adv-x="557" 
d="M252 38q0 18 -33 35q-55 27 -83 67q-29 41 -29 90q0 20 9 51t22 50q53 79 147 79q71 0 113 -47q52 -58 52 -132q0 -52 -36 -98q-29 -36 -80 -63q-28 -15 -28 -33q0 -12 9 -23.5t20 -11.5q24 0 68 27q75 47 106 119q19 46 19 96q0 100 -79 171q-70 64 -169 64
q-106 0 -177 -71q-74 -73 -74 -178q0 -46 21 -91q38 -82 127 -125q23 -11 38 -11q17 0 27 9.5t10 25.5zM257 680q-37 0 -37 -35q0 -13 9 -23.5t37 -29.5l70 -48l-40 113q-8 23 -39 23z" />
    <glyph glyph-name="oacute" unicode="&#xf3;" horiz-adv-x="557" 
d="M252 38q0 18 -33 35q-55 27 -83 67q-29 41 -29 90q0 20 9 51t22 50q53 79 147 79q71 0 113 -47q52 -58 52 -132q0 -52 -36 -98q-29 -36 -80 -63q-28 -15 -28 -33q0 -12 9 -23.5t20 -11.5q24 0 68 27q75 47 106 119q19 46 19 96q0 100 -79 171q-70 64 -169 64
q-106 0 -177 -71q-74 -73 -74 -178q0 -46 21 -91q38 -82 127 -125q23 -11 38 -11q17 0 27 9.5t10 25.5zM299 680q-31 0 -39 -23l-40 -113l70 48q28 19 37 29.5t9 23.5q0 35 -37 35z" />
    <glyph glyph-name="ocircumflex" unicode="&#xf4;" horiz-adv-x="557" 
d="M252 38q0 18 -33 35q-55 27 -83 67q-29 41 -29 90q0 20 9 51t22 50q53 79 147 79q71 0 113 -47q52 -58 52 -132q0 -52 -36 -98q-29 -36 -80 -63q-28 -15 -28 -33q0 -12 9 -23.5t20 -11.5q24 0 68 27q75 47 106 119q19 46 19 96q0 100 -79 171q-70 64 -169 64
q-106 0 -177 -71q-74 -73 -74 -178q0 -46 21 -91q38 -82 127 -125q23 -11 38 -11q17 0 27 9.5t10 25.5zM278 630q10 0 30 -19q40 -38 94 -74q20 -13 29 -13q19 0 19 16q0 12 -33 40q-32 28 -71 68l-13 13l-12.5 12.5l-10 10t-9.5 9t-8 6.5t-8 4t-7 1t-7 -1t-8 -4t-8 -6.5
t-9.5 -9l-10 -10l-12.5 -12.5l-13 -13q-39 -40 -71 -68q-33 -28 -33 -40q0 -16 19 -16q9 0 29 13q54 36 94 74q20 19 30 19z" />
    <glyph glyph-name="otilde" unicode="&#xf5;" horiz-adv-x="557" 
d="M252 38q0 18 -33 35q-55 27 -83 67q-29 41 -29 90q0 20 9 51t22 50q53 79 147 79q71 0 113 -47q52 -58 52 -132q0 -52 -36 -98q-29 -36 -80 -63q-28 -15 -28 -33q0 -12 9 -23.5t20 -11.5q24 0 68 27q75 47 106 119q19 46 19 96q0 100 -79 171q-70 64 -169 64
q-106 0 -177 -71q-74 -73 -74 -178q0 -46 21 -91q38 -82 127 -125q23 -11 38 -11q17 0 27 9.5t10 25.5zM119 537q11 0 35 31q25 29 50 29q9 0 20 -4.5t18.5 -9t19.5 -13t16 -11.5q41 -27 82 -27q33 0 66 30.5t33 57.5q0 26 -22 26q-11 0 -35 -31q-25 -29 -50 -29
q-9 0 -20 4.5t-18.5 9t-19.5 13t-16 11.5q-41 27 -82 27q-33 0 -66 -30.5t-33 -57.5q0 -26 22 -26z" />
    <glyph glyph-name="odieresis" unicode="&#xf6;" horiz-adv-x="557" 
d="M252 38q0 18 -33 35q-55 27 -83 67q-29 41 -29 90q0 20 9 51t22 50q53 79 147 79q71 0 113 -47q52 -58 52 -132q0 -52 -36 -98q-29 -36 -80 -63q-28 -15 -28 -33q0 -12 9 -23.5t20 -11.5q24 0 68 27q75 47 106 119q19 46 19 96q0 100 -79 171q-70 64 -169 64
q-106 0 -177 -71q-74 -73 -74 -178q0 -46 21 -91q38 -82 127 -125q23 -11 38 -11q17 0 27 9.5t10 25.5zM364 544q20 0 35 14t15 34q0 19 -14 30.5t-32 11.5q-19 0 -33 -13t-14 -31q0 -17 12.5 -31.5t30.5 -14.5zM186 546q20 0 34 13.5t14 32.5q0 18 -12.5 30t-31.5 12
q-20 0 -34 -12.5t-14 -30.5t13.5 -31.5t30.5 -13.5z" />
    <glyph glyph-name="divide" unicode="&#xf7;" horiz-adv-x="401" 
d="M367 243q0 13 -9.5 23t-23.5 10h-267q-13 0 -23 -10t-10 -23t10 -23t23 -10h267q14 0 23.5 10t9.5 23zM200 358q20 0 33 13.5t13 32.5q0 18 -12.5 30t-32.5 12q-19 0 -32.5 -12.5t-13.5 -30.5q0 -19 13 -32t32 -13zM200 40q20 0 33 13.5t13 32.5q0 18 -12.5 30t-32.5 12
q-19 0 -32.5 -12.5t-13.5 -30.5q0 -19 13 -32t32 -13z" />
    <glyph glyph-name="oslash" unicode="&#xf8;" horiz-adv-x="540" 
d="M327 1q18 0 53 20q36 21 60 45q71 71 71 162t-56 162q-9 11 -9 12q0 4 8 14q13 19 13 32q0 15 -9 24.5t-26 9.5q-19 0 -38 -26q-7 -9 -10 -9q-2 0 -20 8q-44 19 -93 19q-54 0 -93 -15t-75 -51q-74 -74 -74 -173q0 -85 53 -153q9 -11 9 -12q0 -4 -11 -17q-12 -14 -12 -26
q0 -15 9 -23.5t23 -8.5q15 0 30 18q11 13 15 13q6 0 21 -9q25 -14 41 -14q15 0 26.5 8t11.5 22q0 19 -27 33q-26 14 -26 18q0 2 20 28l171 216q10 13 13 13q11 0 31 -52q10 -27 10 -59q0 -60 -50 -110q-28 -28 -63 -50q-30 -20 -30 -36q0 -14 10 -23.5t23 -9.5zM107 233
q0 71 43 120q47 53 117 53q27 0 40 -4q33 -10 33 -16q0 -2 -51 -66l-129 -163q-4 -5 -9 -12l-7.5 -10.5t-3.5 -3.5q-5 0 -14.5 18t-13.5 36q-5 21 -5 48z" />
    <glyph glyph-name="ugrave" unicode="&#xf9;" horiz-adv-x="437" 
d="M192 70q-36 0 -58 27t-22 76v261q0 16 -11 27.5t-28 11.5t-28 -11.5t-11 -27.5v-264q0 -33 3 -48q7 -42 41 -76q46 -48 113 -48q62 0 110 57l12 13l8 -12q38 -57 64 -57q9 0 18.5 9.5t9.5 19.5q0 12 -18 43q-10 16 -19 41q-4 13 -4 64v256q0 16 -11 27.5t-28 11.5
t-28 -11.5t-11 -27.5v-236q0 -37 -4 -53q-6 -25 -25 -44q-30 -29 -73 -29zM182 680q-37 0 -37 -35q0 -13 9 -23.5t37 -29.5l70 -48l-40 113q-8 23 -39 23z" />
    <glyph glyph-name="uacute" unicode="&#xfa;" horiz-adv-x="437" 
d="M192 70q-36 0 -58 27t-22 76v261q0 16 -11 27.5t-28 11.5t-28 -11.5t-11 -27.5v-264q0 -33 3 -48q7 -42 41 -76q46 -48 113 -48q62 0 110 57l12 13l8 -12q38 -57 64 -57q9 0 18.5 9.5t9.5 19.5q0 12 -18 43q-10 16 -19 41q-4 13 -4 64v256q0 16 -11 27.5t-28 11.5
t-28 -11.5t-11 -27.5v-236q0 -37 -4 -53q-6 -25 -25 -44q-30 -29 -73 -29zM224 680q-31 0 -39 -23l-40 -113l70 48q28 19 37 29.5t9 23.5q0 35 -37 35z" />
    <glyph glyph-name="ucircumflex" unicode="&#xfb;" horiz-adv-x="437" 
d="M192 70q-36 0 -58 27t-22 76v261q0 16 -11 27.5t-28 11.5t-28 -11.5t-11 -27.5v-264q0 -33 3 -48q7 -42 41 -76q46 -48 113 -48q62 0 110 57l12 13l8 -12q38 -57 64 -57q9 0 18.5 9.5t9.5 19.5q0 12 -18 43q-10 16 -19 41q-4 13 -4 64v256q0 16 -11 27.5t-28 11.5
t-28 -11.5t-11 -27.5v-236q0 -37 -4 -53q-6 -25 -25 -44q-30 -29 -73 -29zM203 630q10 0 30 -19q40 -38 94 -74q20 -13 29 -13q19 0 19 16q0 12 -33 40q-32 28 -71 68l-13 13l-12.5 12.5l-10 10t-9.5 9t-8 6.5t-8 4t-7 1t-7 -1t-8 -4t-8 -6.5t-9.5 -9l-10 -10l-12.5 -12.5
l-13 -13q-39 -40 -71 -68q-33 -28 -33 -40q0 -16 19 -16q9 0 29 13q54 36 94 74q20 19 30 19z" />
    <glyph glyph-name="udieresis" unicode="&#xfc;" horiz-adv-x="437" 
d="M192 70q-36 0 -58 27t-22 76v261q0 16 -11 27.5t-28 11.5t-28 -11.5t-11 -27.5v-264q0 -33 3 -48q7 -42 41 -76q46 -48 113 -48q62 0 110 57l12 13l8 -12q38 -57 64 -57q9 0 18.5 9.5t9.5 19.5q0 12 -18 43q-10 16 -19 41q-4 13 -4 64v256q0 16 -11 27.5t-28 11.5
t-28 -11.5t-11 -27.5v-236q0 -37 -4 -53q-6 -25 -25 -44q-30 -29 -73 -29zM289 544q20 0 35 14t15 34q0 19 -14 30.5t-32 11.5q-19 0 -33 -13t-14 -31q0 -17 12.5 -31.5t30.5 -14.5zM111 546q20 0 34 13.5t14 32.5q0 18 -12.5 30t-31.5 12q-20 0 -34 -12.5t-14 -30.5
t13.5 -31.5t30.5 -13.5z" />
    <glyph glyph-name="yacute" unicode="&#xfd;" horiz-adv-x="457" 
d="M76 -230q16 0 26 13q14 18 46 66q139 207 192 299q35 60 59 140q24 79 24 132v13q0 19 -9.5 30t-24.5 11q-26 0 -36 -20q-4 -8 -7 -29q-9 -68 -14 -90q-22 -101 -97 -219q-3 -4 -6 -9t-5 -8t-4 -6.5t-3.5 -6t-3 -4.5t-3 -3t-2.5 -2t-2.5 -1.5t-2.5 -0.5q-7 0 -41 29
q-21 19 -33 47q-17 39 -17 151v132q0 16 -11 27.5t-28 11.5t-28 -11.5t-11 -27.5v-99q0 -93 10 -153q9 -51 31 -85t65 -68q3 -3 6.5 -5.5t6 -4t4.5 -3t3 -2.5t1.5 -2.5t0.5 -2.5q0 -2 -8 -15l-107 -168q-7 -10 -7 -22q0 -14 10.5 -24t25.5 -10zM249 680q-31 0 -39 -23
l-40 -113l70 48q28 19 37 29.5t9 23.5q0 35 -37 35z" />
    <glyph glyph-name="thorn" unicode="&#xfe;" horiz-adv-x="483" 
d="M73 -221q17 0 28 11.5t11 27.5v206q0 19 2 19t15 -9q47 -35 111 -35q67 0 125 44q43 32 66 85t23 108q0 104 -69 173q-29 29 -70.5 47t-81.5 18q-63 0 -102 -29q-13 -10 -16 -10t-3 44v172q0 17 -11 28t-28 11t-28 -11t-11 -28v-833q0 -16 11 -27.5t28 -11.5zM233 67
q-34 0 -63.5 16.5t-42.5 45.5q-15 31 -15 92q0 86 9 114q10 32 40 52t66 20q39 0 71.5 -22t52.5 -60q19 -37 19 -95q0 -53 -18 -84q-44 -79 -119 -79z" />
    <glyph glyph-name="ydieresis" unicode="&#xff;" horiz-adv-x="457" 
d="M76 -230q16 0 26 13q14 18 46 66q139 207 192 299q35 60 59 140q24 79 24 132v13q0 19 -9.5 30t-24.5 11q-26 0 -36 -20q-4 -8 -7 -29q-9 -68 -14 -90q-22 -101 -97 -219q-3 -4 -6 -9t-5 -8t-4 -6.5t-3.5 -6t-3 -4.5t-3 -3t-2.5 -2t-2.5 -1.5t-2.5 -0.5q-7 0 -41 29
q-21 19 -33 47q-17 39 -17 151v132q0 16 -11 27.5t-28 11.5t-28 -11.5t-11 -27.5v-99q0 -93 10 -153q9 -51 31 -85t65 -68q3 -3 6.5 -5.5t6 -4t4.5 -3t3 -2.5t1.5 -2.5t0.5 -2.5q0 -2 -8 -15l-107 -168q-7 -10 -7 -22q0 -14 10.5 -24t25.5 -10zM314 544q20 0 35 14t15 34
q0 19 -14 30.5t-32 11.5q-19 0 -33 -13t-14 -31q0 -17 12.5 -31.5t30.5 -14.5zM136 546q20 0 34 13.5t14 32.5q0 18 -12.5 30t-31.5 12q-20 0 -34 -12.5t-14 -30.5t13.5 -31.5t30.5 -13.5z" />
    <glyph glyph-name="OE" unicode="&#x152;" horiz-adv-x="770" 
d="M741 29q0 13 -9 22t-22 9h-153q-44 0 -44 7l14 21q31 47 40 73q9 27 9 64v135q0 32 6 38q4 4 46 4h44q14 0 23 9t9 22t-9 22.5t-23 9.5h-44q-40 0 -46 4q-4 3 -7 24q-10 75 -55 121q-7 7 -7 10q0 4 24 4h172q13 0 22.5 9t9.5 23t-9.5 23t-22.5 9h-286q-16 0 -33.5 1
t-40.5 1q-113 0 -208 -80q-26 -21 -52.5 -62t-39.5 -79q-20 -59 -20 -122q0 -79 28 -144q23 -52 67 -99t96 -73q64 -32 104 -32q15 0 23.5 8.5t8.5 22.5q0 17 -7.5 23.5t-26.5 12.5q-55 17 -93.5 41.5t-70.5 70.5q-52 76 -52 166q0 125 84 208q75 75 175 75q44 0 71 -24
q16 -14 33 -43.5t25 -55.5q11 -39 11 -135v-138q0 -43 -10.5 -67t-49.5 -74q-34 -44 -34 -59q0 -37 57 -37h242q13 0 22 9t9 22z" />
    <glyph glyph-name="oe" unicode="&#x153;" horiz-adv-x="852" 
d="M210 3q12 0 24 9.5t12 22.5q0 11 -6.5 19t-26.5 19q-33 18 -54 37q-51 48 -51 121q0 65 38 120q42 59 121 59q69 0 116 -47q54 -52 54 -128q0 -64 -43 -108q-31 -31 -69 -54q-29 -17 -29 -36q0 -14 8.5 -24.5t22.5 -10.5q24 0 75 33q34 23 62 57q10 13 12 13t6 -5
t9.5 -12.5t9.5 -11.5q36 -38 73 -53t101 -22q8 -1 59 -1h50q14 0 24 9.5t10 23.5t-10 24t-24 10h-50q-72 0 -104 9q-15 4 -15 12l28 40q57 80 107 146q40 53 53.5 75.5t13.5 38.5q0 40 -57 68q-36 18 -84 18q-102 0 -171 -75q-3 -3 -6.5 -7t-6.5 -8t-5.5 -7t-4.5 -5t-3 -2
q-2 0 -7 6t-13.5 16t-13.5 15q-72 72 -184 72q-81 0 -150 -59q-82 -71 -82 -184q0 -124 114 -205q39 -28 67 -28zM550 135q-13 0 -28 52q-5 18 -5 45q0 67 44 117q51 58 119 58q54 0 54 -19q0 -11 -80 -118q-25 -33 -76 -107q-20 -28 -28 -28z" />
    <glyph glyph-name="Scaron" unicode="&#x160;" horiz-adv-x="358" 
d="M194 818q-10 0 -30 19q-40 38 -94 74q-20 13 -29 13q-19 0 -19 -16q0 -12 33 -40q32 -28 71 -68l13 -13l12.5 -12.5l10 -10t9.5 -9t8 -6.5t8 -4t7 -1t7 1t8 4t8 6.5t9.5 9l10 10l12.5 12.5l13 13q39 40 71 68q33 28 33 40q0 16 -19 16q-9 0 -29 -13q-54 -36 -94 -74
q-20 -19 -30 -19zM64 -4q60 0 120 26t100 85q45 65 45 137q0 38 -13 76q-16 45 -87 121q-55 57 -67.5 76t-12.5 45q0 44 44 57q15 4 58 4h33q15 0 26 10.5t11 25.5t-11 26t-26 11h-54q-42 0 -70 -8t-53 -33q-40 -40 -40 -97q0 -37 17.5 -64.5t62.5 -76.5q42 -45 58 -64.5
t29 -49t13 -64.5q0 -47 -28 -88q-50 -71 -147 -82q-43 -5 -43 -38q0 -16 10.5 -25.5t24.5 -9.5z" />
    <glyph glyph-name="scaron" unicode="&#x161;" horiz-adv-x="400" 
d="M240 598q-10 0 -30 19q-40 38 -94 74q-20 13 -29 13q-19 0 -19 -16q0 -12 33 -40q32 -28 71 -68l13 -13l12.5 -12.5l10 -10t9.5 -9t8 -6.5t8 -4t7 -1t7 1t8 4t8 6.5t9.5 9l10 10l12.5 12.5l13 13q39 40 71 68q33 28 33 40q0 16 -19 16q-9 0 -29 -13q-54 -36 -94 -74
q-20 -19 -30 -19zM63 -230q17 0 41 32l158 212q46 60 66 100q14 28 14 53q0 40 -51 105l-72 93q-12 17 -12 23q0 10 5.5 12t26.5 2h96q15 0 25.5 10t10.5 25t-10.5 25.5t-25.5 10.5h-55q-93 0 -115 -10q-43 -18 -43 -67q0 -20 8 -36q4 -7 77 -101q16 -20 34 -46
q21 -31 21 -45q0 -23 -25 -60l-189 -265q-19 -26 -19 -38q0 -16 9.5 -25.5t24.5 -9.5z" />
    <glyph glyph-name="Ydieresis" unicode="&#x178;" 
d="M232 -4q16 0 27 11t11 27v135q0 69 12 103q11 28 40 79q3 5 30 49.5t39 69.5q17 33 32 85t15 85q0 50 -34 50q-22 0 -30.5 -14t-15.5 -55q-19 -109 -73 -193q-1 -2 -7 -12t-12.5 -20.5t-13.5 -21t-12.5 -17.5t-8.5 -7q-4 0 -11 10t-35 60q-39 69 -54.5 109.5t-27.5 106.5
q-6 33 -13.5 43t-25.5 10q-35 0 -35 -41q0 -34 15 -90t37 -97q4 -8 15.5 -29.5t24 -44.5t23.5 -43q25 -43 35 -72q15 -47 15 -105v-133q0 -16 11 -27t27 -11zM319 764q20 0 35 14t15 34q0 19 -14 30.5t-32 11.5q-19 0 -33 -13t-14 -31q0 -17 12.5 -31.5t30.5 -14.5zM141 766
q20 0 34 13.5t14 32.5q0 18 -12.5 30t-31.5 12q-20 0 -34 -12.5t-14 -30.5t13.5 -31.5t30.5 -13.5z" />
    <glyph glyph-name="Zcaron" unicode="&#x17d;" horiz-adv-x="420" 
d="M239 818q-10 0 -30 19q-40 38 -94 74q-20 13 -29 13q-19 0 -19 -16q0 -12 33 -40q32 -28 71 -68l13 -13l12.5 -12.5l10 -10t9.5 -9t8 -6.5t8 -4t7 -1t7 1t8 4t8 6.5t9.5 9l10 10l12.5 12.5l13 13q39 40 71 68q33 28 33 40q0 16 -19 16q-9 0 -29 -13q-54 -36 -94 -74
q-20 -19 -30 -19zM100 -2h251q13 0 23 10t10 23t-10 23t-23 10h-197q-32 0 -39 6q-4 4 -4 16q0 24 16 66q11 28 24 53.5t36 60l32 48t44 60t39 51.5q25 34 52 86q37 74 37 120q0 35 -20 47t-66 12h-185q-14 0 -23.5 -10t-9.5 -23t9.5 -23t23.5 -10h156q24 0 28 -4
q5 -5 5 -17q0 -29 -20 -66q-15 -28 -97.5 -141t-93.5 -135q-5 -11 -16 -30t-18 -34.5t-14 -36.5q-21 -68 -21 -98q0 -64 71 -64z" />
    <glyph glyph-name="zcaron" unicode="&#x17e;" horiz-adv-x="393" 
d="M214 598q-10 0 -30 19q-40 38 -94 74q-20 13 -29 13q-19 0 -19 -16q0 -12 33 -40q32 -28 71 -68l13 -13l12.5 -12.5l10 -10t9.5 -9t8 -6.5t8 -4t7 -1t7 1t8 4t8 6.5t9.5 9l10 10l12.5 12.5l13 13q39 40 71 68q33 28 33 40q0 16 -19 16q-9 0 -29 -13q-54 -36 -94 -74
q-20 -19 -30 -19zM133 -1h196q14 0 24.5 10t10.5 24t-10.5 24.5t-24.5 10.5h-184q-26 0 -26 3q0 2 11 16l177 231q57 74 57 104q0 19 -12 34q-13 17 -37 17h-215q-14 0 -24.5 -10.5t-10.5 -24.5t10.5 -24.5t24.5 -10.5h144q29 0 29 -3q0 -2 -15 -22l-176 -230
q-53 -69 -53 -96q0 -24 17 -39q12 -10 24 -12t63 -2z" />
    <glyph glyph-name="florin" unicode="&#x192;" horiz-adv-x="314" 
d="M57 -230q30 0 71 37q38 35 52 69.5t14 88.5v408q0 22 4 26t19 4h24q14 0 24.5 10.5t10.5 24.5t-10.5 24.5t-24.5 10.5h-15q-22 0 -27 4q-5 5 -5 25q0 33 5 50q10 30 57 63q2 1 6 4t5.5 4t4.5 3.5t4 4t3 3.5t2.5 4t1.5 4.5t1.5 5.5t0.5 6q0 15 -8.5 25.5t-22.5 10.5
q-27 0 -71 -36q-48 -40 -60 -91q-6 -26 -6 -60q0 -24 -5 -28q-2 -2 -9 -2h-25q-14 0 -24.5 -10.5t-10.5 -24.5t10.5 -24.5t24.5 -10.5h11q21 0 25 -5q3 -4 3 -23v-410q0 -45 -10 -68q-11 -23 -51 -51q-20 -14 -26 -21.5t-6 -19.5q0 -15 10 -25t23 -10z" />
    <glyph glyph-name="circumflex" unicode="&#x2c6;" horiz-adv-x="392" 
d="M196 630q10 0 30 -19q40 -38 94 -74q20 -13 29 -13q19 0 19 16q0 12 -33 40q-32 28 -71 68l-13 13l-12.5 12.5l-10 10t-9.5 9t-8 6.5t-8 4t-7 1t-7 -1t-8 -4t-8 -6.5t-9.5 -9l-10 -10l-12.5 -12.5l-13 -13q-39 -40 -71 -68q-33 -28 -33 -40q0 -16 19 -16q9 0 29 13
q54 36 94 74q20 19 30 19z" />
    <glyph glyph-name="tilde" unicode="&#x2dc;" horiz-adv-x="410" 
d="M46 537q11 0 35 31q25 29 50 29q9 0 20 -4.5t18.5 -9t19.5 -13t16 -11.5q41 -27 82 -27q33 0 66 30.5t33 57.5q0 26 -22 26q-11 0 -35 -31q-25 -29 -50 -29q-9 0 -20 4.5t-18.5 9t-19.5 13t-16 11.5q-41 27 -82 27q-33 0 -66 -30.5t-33 -57.5q0 -26 22 -26z" />
    <glyph glyph-name="bullet" unicode="&#x2022;" horiz-adv-x="215" 
d="M108 168q30 0 51.5 21t21.5 51q0 31 -22.5 52.5t-53.5 21.5q-29 0 -50 -21t-21 -50q0 -30 21 -52.5t53 -22.5z" />
    <glyph glyph-name="ellipsis" unicode="&#x2026;" horiz-adv-x="777" 
d="M667 3q20 0 33 13.5t13 32.5q0 18 -12.5 30t-32.5 12q-19 0 -32.5 -12.5t-13.5 -30.5q0 -19 13 -32t32 -13zM388 3q20 0 33 13.5t13 32.5q0 18 -12.5 30t-32.5 12q-19 0 -32.5 -12.5t-13.5 -30.5q0 -19 13 -32t32 -13zM109 3q20 0 33 13.5t13 32.5q0 18 -12.5 30
t-32.5 12q-19 0 -32.5 -12.5t-13.5 -30.5q0 -19 13 -32t32 -13z" />
    <glyph glyph-name="perthousand" unicode="&#x2030;" horiz-adv-x="874" 
d="M736 0q48 0 78.5 31t30.5 78q0 46 -32.5 77.5t-78.5 31.5t-76.5 -32t-30.5 -76q0 -46 31 -78t78 -32zM735 62q-19 0 -31.5 14t-12.5 33t12.5 33t30.5 14q21 0 34 -12.5t13 -33.5t-13 -34.5t-33 -13.5zM436 -2q48 0 78.5 31t30.5 78q0 46 -32.5 77.5t-78.5 31.5t-76.5 -32
t-30.5 -76q0 -46 31 -78t78 -32zM435 60q-19 0 -31.5 14t-12.5 33t12.5 33t30.5 14q21 0 34 -12.5t13 -33.5t-13 -34.5t-33 -13.5zM143 371q45 0 76 31.5t31 76.5q0 43 -32 76t-77 33q-44 0 -78 -33.5t-34 -75.5q0 -47 33 -77.5t81 -30.5zM139 434q-18 0 -30.5 12.5
t-12.5 33.5q0 18 13 31.5t31 13.5t30.5 -13t12.5 -32q0 -21 -12 -33.5t-32 -12.5zM48 32q0 -34 34 -34q21 0 53 41l324 413q50 63 59.5 77t9.5 25q0 34 -34 34q-14 0 -24.5 -8.5t-37.5 -43.5l-352 -448q-21 -27 -26.5 -36t-5.5 -20z" />
    <glyph glyph-name="Euro" unicode="&#x20ac;" horiz-adv-x="490" 
d="M456 34q0 14 -10.5 24t-24.5 10q-98 0 -168 61q-64 58 -74 126l-1 14h158q14 0 24 10t10 24q0 15 -10 24.5t-24 9.5h-158q0 7 1 14q10 68 74 126q70 61 168 61q14 0 24.5 10t10.5 24t-10.5 24.5t-24.5 10.5q-133 0 -220 -77q-73 -65 -100 -167q-4 -18 -4 -26h-34
q-14 0 -24 -10t-10 -24t10 -24t24 -10h34l4 -26q27 -102 100 -167q87 -77 220 -77q14 0 24.5 10.5t10.5 24.5z" />
    <glyph glyph-name="trademark" unicode="&#x2122;" horiz-adv-x="530" 
d="M379 369q14 0 14 13v133q0 20 -2.5 26t-10.5 6q-7 0 -26 -28q-7 -10 -12 -16q-20 -29 -22 -29q-1 0 -3.5 3.5t-7.5 11.5t-10 14q-32 41 -36 43q-2 1 -4 1q-7 0 -9 -5.5t-2 -20.5v-138q0 -13 13 -13q14 0 14 13v94q0 16 1 16t21 -29q21 -31 23 -31t25 31q10 14 17 25
q2 4 3 4t1 -17v-94q0 -13 13 -13zM184 370q14 0 14 13v91q0 29 -6 39q-2 2 -4 4.5t-3 3.5t-1 2t22 1h8q12 0 12 11q0 12 -12 12h-76q-11 0 -11 -12q0 -11 11 -11h6q11 0 17 -9q10 -14 10 -38v-94q0 -13 13 -13zM261 640q80 0 126 -43q59 -57 59 -135q0 -54 -22 -95
q-32 -58 -82 -78q-38 -15 -42 -35q0 -22 23 -22q12 0 32 7q75 27 117 104q29 53 29 115q0 101 -72 171q-65 63 -167 63q-99 0 -166 -68t-67 -173q0 -72 44 -131q38 -52 98 -79q20 -9 33 -9q26 0 26 19q0 13 -6 19t-28 17q-55 28 -85 75q-27 44 -27 93q0 76 51 130
q52 55 126 55z" />
    </font>
</defs>
</svg>
